<svg version="1.2" baseProfile="tiny-ps" xmlns="http://www.w3.org/2000/svg" viewBox="0 0 2000 1500" width="2000" height="1500">
	<title>Football Player Illustration-ai</title>
	<defs>
		<linearGradient id="grd1" gradientUnits="userSpaceOnUse"  x1="1668" y1="267.5" x2="1537.4" y2="1210.6">
			<stop offset="0" stop-color="#f6e1db"  />
			<stop offset="1" stop-color="#73b5d6"  />
		</linearGradient>
		<linearGradient id="grd2" gradientUnits="userSpaceOnUse"  x1="1442.2" y1="1257.6" x2="1229.9" y2="1257.6">
			<stop offset="0" stop-color="#4c2a4b" stop-opacity="0" />
			<stop offset="1" stop-color="#4c2a4b"  />
		</linearGradient>
		<linearGradient id="grd3" gradientUnits="userSpaceOnUse"  x1="1176.7" y1="1297.4" x2="926.2" y2="1297.4">
			<stop offset="0" stop-color="#4c2a4b" stop-opacity="0" />
			<stop offset="1" stop-color="#4c2a4b"  />
		</linearGradient>
		<clipPath clipPathUnits="userSpaceOnUse" id="cp1">
			<path d="m831.81 869.67c49.36 0 89.37 38.65 89.37 86.32c0 47.68-40.01 86.32-89.37 86.32c-49.36 0-89.37-38.65-89.37-86.32c0-47.68 40.01-86.32 89.37-86.32z" />
		</clipPath>
		<clipPath clipPathUnits="userSpaceOnUse" id="cp2">
			<path d="m771.87 456.74c-6.34 9.13-26.33 31.96-60.52 64.15c-22.79 21.46-47.84 14-75.16-22.37l44.8-48.35c6.29-4.41 13.44-11.65 21.44-21.71c16.89-3.08 40.03 6.35 69.43 28.28z" />
		</clipPath>
		<clipPath clipPathUnits="userSpaceOnUse" id="cp3">
			<path d="m689.92 490.06l-11.76-6.51c9.06 8.25 10.44 15.29 4.14 21.11l-26.2-24.07c0.51 2.86 2.86 7.88 7.07 15.06c4.21 7.18 4.24 12.93 0.1 17.26c-5.01-3.17-12.3-9.73-21.86-19.68c3.94 4.7 4.27 9.84 0.98 15.41c-8.05-6.34-18.98-14.01-17.24-20.91c1.74-6.89 9.92-21.59 19.87-31.32c9.95-9.74 14.9-7.66 27.77-10.1c8.58-1.62 12.92 1.06 13.04 8.06c2.49-1.22 4.09-1.26 4.8-0.13c-0.21 2.07 0.86 5.94 3.22 11.62c2.36 5.68 1.35 9.58-3.03 11.71c3.29 4.32 2.99 8.47-0.89 12.47z" />
		</clipPath>
		<clipPath clipPathUnits="userSpaceOnUse" id="cp4">
			<path d="m951.52 348.82c24.95-15 35.21-34.85 30.77-59.57c-6.65-37.08 225.74-7.35 288.16 57.38c43.07 63.49 69.67 122.62 79.78 177.39c25.78 9.46 40.75 21.16 44.91 35.11c6.23 20.93-10.61 53.28-26.38 51.02c-15.77-2.26-51.75-42.76-54.14-49.19c-5.46-14.72-4.48-23.07-9.71-41.86c-5.24-18.79-61.11-90.36-70.73-126.66c-29.68 7.75-56.97 8.49-81.88 2.22c-20.66 9-39.83 14.96-57.51 17.89c-9.36 65.95-9.42 113-0.16 141.14c13.89 42.21 31.5 83.9 39.18 110.16c-28.23-33.86-69.54-39.16-123.94-15.91c-41.17 23.64-82.16 33.83-122.96 30.59c-15-22.59-25.57-56.37-31.71-101.35c-7.86-57.61-11.11-88.03-34.93-138.05c-22.19 18.81-38.6 29.59-49.24 32.34c-22.09-14.1-38.59-24.93-49.49-32.49c-16.35-11.33-22.89-14.3-29.04-12.39c53.59-99.29 112.28-150.48 176.05-153.57c20.57 63.94 48.22 89.21 82.96 75.82z" />
		</clipPath>
		<clipPath clipPathUnits="userSpaceOnUse" id="cp5">
			<path d="m1058.2 924.83c3.32 14.35 3.91 36.21 1.77 65.55c22.2-19.89 62.88-0.94 122.03 56.86c16.77 15.36 36.88 24.93 60.32 28.69c15.14 31.86 10.28 56.48-14.57 73.87c-15.66-21.71-43.17-38.98-82.53-51.82c-64.37-20.99-145.44-25.12-155.26-59.42c-9.83-34.3-25.57-95.52-30.64-125.59c-5.07-30.07 10.54-52.45 44.14-44.51c33.6 7.94 55.38 37.33 54.74 56.35z" />
		</clipPath>
		<clipPath clipPathUnits="userSpaceOnUse" id="cp6">
			<path d="m1023.6 1073.42c50.49-3.78 65.73-34.88 45.72-93.32c25.5-6.64 50.89-1.21 76.16 16.29c37.91 26.24 89.96 69.69 105.07 68.61c15.11-1.07 14.96 14.57 13.98 38.8c-0.98 24.24-31.47 57.51-44.62 60.68c-67.56-48.39-132.99-78.74-196.3-91.07z" />
		</clipPath>
		<clipPath clipPathUnits="userSpaceOnUse" id="cp7">
			<path d="m951.73 809.46c7.88-3.76 18.28-0.16 31.2 10.79c19.39 16.43 94.27-16.83 92.93-8.98c-1.35 7.84-5.25 27.96-7.21 55.14c-1.31 18.13-0.99 35.2 0.95 51.21c-14.19 6.14-15.62 7.96-44.19-18.24c-19.06-17.47-43.48-10.28-73.28 21.58l-0.4-111.51z" />
		</clipPath>
		<clipPath clipPathUnits="userSpaceOnUse" id="cp8">
			<path d="m1051.77 799.69c-34.22 20.47-66.77 14.57-97.65-17.7c11.58 11.5 23.14 52.93 17.85 108.55c-3.52 37.08-2.05 89.65 4.41 157.7c-15.69 7.66-36.79 1.47-63.3-18.56c18.27-135.13-57.63-230.5-81.49-306.27c-15.9-50.51 55.11-77.54 213.04-81.08c38.97 84.44 41.35 136.89 7.13 157.35z" />
		</clipPath>
		<clipPath clipPathUnits="userSpaceOnUse" id="cp9">
			<path d="m844.72 775.09c10.39 6.89 25.03 4.35 43.93-7.63c28.35-17.98 52.59-5.44 68.25 17.34c15.66 22.79 32.62 62 31.53 81.96c-0.73 13.31-1.55 64.88-2.46 154.72l2.09 33.96c-25.64 11.11-48.04 9.14-67.18-5.91c-19.15-15.05-28.06-26.54-26.75-34.48c8.37-67.59 5.47-116.74-8.7-147.47c-14.17-30.72-27.74-61.56-40.72-92.51z" />
		</clipPath>
		<clipPath clipPathUnits="userSpaceOnUse" id="cp10">
			<path d="m900.41 1021.98c16.26 3.19 29.59 8.42 40 15.69c15.62 10.91 18.94 9.01 27.3 7.41c8.37-1.61 6.35-17.58 7.1-25.83c3.39 9.17 6.96 20.24 10.72 33.22c5.63 19.47 4.63 29.65 0.25 32.86c-4.39 3.22-0.36 10.73-5.2 12.9c-4.84 2.18-8.82-7.01-9.57-7.89c-0.5-0.59-2.21 0.08-5.13 2.01c-1.5 5.7-3.97 9.39-7.42 11.05c-4.92-4.73-9.24-6.81-12.96-6.23c-5.57 0.87-29.21 7.01-35.98 12.06c1.01 3.29 0.3 5.78-2.12 7.46l-4.9-5.9c-9.89 1.79-16.49 2.55-19.81 2.27c1.07 5.42 0.25 8.32-2.45 8.69c-2.73 0.86-4.84-2.24-6.3-9.29l-5.61-1.09c-0.8 3.98-2.55 6.19-5.24 6.63c-2.07-1.73-3.32-3.99-3.74-6.8l-7.65 0.51c-0.82 3.85-2.97 5.66-6.44 5.45l-3.32-8.77l-10.57-2.06c-1.11 3.14-3.08 4.92-5.92 5.33l-3.05-8.31c-5.33-1.61-8.81-3.63-10.43-6.06c-2.43-3.64-5.54-15.36 22.06-22.9c27.6-7.55 27.83-9.92 38.93-23.6c11.11-13.68 20.85-24.92 27.46-28.79z" />
		</clipPath>
		<clipPath clipPathUnits="userSpaceOnUse" id="cp11">
			<path d="m1259.73 1056.23c16.52 0.4 21.62-2 27.49 18.22c5.86 20.22-11.35 36.77-18.9 59.01c-7.55 22.25 6.54 28.15 4.4 42.23c-2.12 14.08-8.02 67.3-38.42 65.67c-30.4-1.63-20.53-51.26-23.46-75.43c-1.96-16.12-4.88-28.11-8.78-35.99c10.28 5.7 28.72-0.84 37.54-12.45c8.82-11.61 12.19-29 1.03-38.31c-7.44-6.2-10.42-12.33-8.95-18.39c1.26-3.77 11.52-4.95 28.04-4.55z" />
		</clipPath>
		<clipPath clipPathUnits="userSpaceOnUse" id="cp12">
			<path d="m1046.69 634.64c20.79-1.31 43.83-7.37 69.12-18.17c28.61 46.64 34 94.67 16.2 144.08c-26.7 55.12-71.29 81.39-133.77 78.82c16.34 0.28 17.82-24.39 4.45-74.01c-15.6-76.57-43.17-113.65-82.72-111.25c38.69-10.08 95.55-17.51 126.72-19.47z" />
		</clipPath>
		<clipPath clipPathUnits="userSpaceOnUse" id="cp13">
			<path d="m992.25 229.82c10.19 0.66 11.67 13.45 9.78 27.88c-1.89 14.43-11.43 26.06-18.73 25.1c-7.28-0.95-9.58-14.13-7.68-28.56c1.89-14.43 9.29-24.9 16.63-24.42z" />
		</clipPath>
		<clipPath clipPathUnits="userSpaceOnUse" id="cp14">
			<path d="m922.69 167.7c47.87-1.44 63.94 40.11 59.08 98.18c-4.76 56.97-25.74 96.68-58.03 98.67c-20.46 1.26-37.89-28.66-56.77-69.4c-3.45-7.46-0.75-17.97-4.05-33.85c-12.51-60.18 16.18-92.29 59.76-93.6z" />
		</clipPath>
		<clipPath clipPathUnits="userSpaceOnUse" id="cp15">
			<path d="m920.8 302.01c0.94 10.1 3.16 21.14 8.54 18.54c5.37-2.6 0.19 9.08-7.39 15.87c-7.58 6.79-16.01-6.61-18.23-11.7c-2.21-5.09-0.38-1.64 2.59-3.43c1.97-1.19 3.79-10.26 5.44-27.2c2.71-11.05 8.11-2.18 9.05 7.91z" />
		</clipPath>
		<clipPath clipPathUnits="userSpaceOnUse" id="cp16">
			<path d="m864.27 250.6c0.55 7.58 0.06 17.09-1.48 28.53c-1.54-10.84-4.57-20.52-7.44-34.68c-5.94-29.22-10.19-51.57 30.88-78.82c41.08-27.24 85.44-0.87 95.67 21.98c6.83 15.23 8.95 33.02 6.37 53.35c-1.92 9.33-3.49 16.32-4.71 20.95c-1.82 6.95-5.95 4.01-11.09-8.94c-5.14-12.95-11.12-31.26-21.24-28.8c-10.12 2.47-21.3 13.8-42.24 19.64c-13.96 3.89-26.71 0.03-38.24-11.59c-6.28-4.49-7.31 7.01-6.48 18.38z" />
		</clipPath>
		<clipPath clipPathUnits="userSpaceOnUse" id="cp17">
			<path d="m928.59 276.28c8.85-5.26 15.4-8.17 19.66-8.75c13.61-1.85 12.95 2.57 11.32 3.27c-1.68 0.72-7.86 1.31-11.12 3.05c-6.01 3.22-16.01 12.23-19.95 9.97c-3.28-1.88-3.05-5.22 0.1-7.55z" />
		</clipPath>
		<clipPath clipPathUnits="userSpaceOnUse" id="cp18">
			<path d="m901.02 285.83c-3.17 2.53-12.42-5.74-17.8-8.52c-2.92-1.51-8.22-1.65-9.71-2.25c-1.45-0.59-2.38-4.93 9.35-4.07c3.67 0.27 9.48 2.71 17.45 7.32c2.87 2.1 3.34 5.41 0.71 7.51z" />
		</clipPath>
	</defs>
	<style>
		tspan { white-space:pre }
		.s0 { fill: #ffffff } 
		.s1 { fill: url(#grd1) } 
		.s2 { fill: #f1ddd7 } 
		.s3 { fill: url(#grd2) } 
		.s4 { fill: url(#grd3) } 
		.s5 { fill: #ebc6be } 
		.s6 { fill: #2b4a5e } 
		.s7 { fill: #330c29 } 
		.s8 { fill: #e06e7e } 
		.s9 { fill: #f09b9b } 
		.s10 { fill: #53718b } 
		.s11 { fill: #ffe9eb } 
		.s12 { fill: #ba9690 } 
		.s13 { opacity: .7;fill: #330c29 } 
		.s14 { fill: #b6cbd0 } 
		.s15 { fill: #6a3a4a } 
		.s16 { fill: #e16074 } 
		.s17 { fill: #4c2243 } 
		.s18 { opacity: .2;fill: #330c29 } 
	</style>
	<g id="Layer 3">
		<g id="&lt;Group&gt;">
			<path id="&lt;Path&gt;" class="s0" d="m2000.5 1500.15h-2000v-1500h2000v1500z" />
		</g>
		<g id="&lt;Group&gt;">
			<g id="&lt;Group&gt;">
				<g id="Слой27">
					<path id="&lt;Path&gt;" class="s1" d="m1551.66 704.46c-214.46 258.41 29.04 254.21-99.71 533.6c-111.61 229.23-365.18 170.24-419.62 130.92c-10.85-7.84-22.04-15.32-33.52-22.18c-23.72-14.2-44.29-28.55-62.55-42.96c-3.92-3.08-7.7-6.09-11.34-9.17c-20.99-17.42-38.76-34.85-54.51-51.92c-4.97-5.32-9.73-10.64-14.34-15.88c-71.79-81.94-107.69-152.89-260.43-175.42c-18.54-2.73-37.37-3.01-56.05-2.38c-116.22 4.06-180.67-63.74-223.91-137c-21.2-35.76-33.94-76.27-34.29-117.83c-1.45-171.01 137.49-284.76 416.82-341.25c262.11-81.59 197.32-57.17 320.68-208.52c123.57-151.63 374.14-120.77 508.49 17.28c118.46 121.61 124.76 321.66 24.28 442.71z" />
				</g>
			</g>
			<g id="&lt;Group&gt;">
				<g id="Слой27 1 ">
					<g id="&lt;Group&gt;">
						<path id="&lt;Path&gt;" class="s2" d="m278.89 669.54c-1.63 0-3.09-1.14-3.42-2.8c-6.16-30.21-5.81-59.49 1.04-87.05c39.27-158.07 256.95-194.1 383.21-201.5c1.89-0.1 3.58 1.36 3.7 3.29c0.11 1.93-1.36 3.58-3.29 3.7c-124.34 7.3-338.64 42.49-376.83 196.21c-6.59 26.54-6.92 54.79-0.98 83.96c0.39 1.9-0.83 3.74-2.73 4.13c-0.24 0.05-0.47 0.07-0.7 0.07z" />
					</g>
					<g id="&lt;Group&gt;">
						<path id="&lt;Path&gt;" class="s2" d="m343.54 802.44c-0.98 0-1.95-0.41-2.65-1.21c-3.25-3.77-6.37-7.61-9.35-11.51c-1.17-1.54-0.88-3.73 0.66-4.91c1.54-1.16 3.73-0.88 4.91 0.66c2.9 3.8 5.92 7.53 9.08 11.19c1.26 1.46 1.1 3.67-0.36 4.93c-0.66 0.57-1.47 0.85-2.29 0.85z" />
					</g>
					<g id="&lt;Group&gt;">
						<path id="&lt;Path&gt;" class="s2" d="m725.29 1059.62c-1.22 0-2.41-0.64-3.05-1.78c-33.61-59.8-70.73-113.06-184.98-159.18c-15.58-6.29-33.3-11.59-55.77-16.69c-23.61-5.32-45.57-12.95-65.27-22.67c-1.73-0.85-2.45-2.95-1.59-4.69c0.85-1.72 2.96-2.44 4.68-1.59c19.2 9.47 40.64 16.91 63.72 22.12c22.84 5.18 40.9 10.58 56.84 17.01c116.21 46.91 155.45 103.51 188.46 162.24c0.95 1.69 0.35 3.82-1.34 4.76c-0.54 0.31-1.13 0.45-1.71 0.45z" />
					</g>
					<g id="&lt;Group&gt;">
						<path id="&lt;Path&gt;" class="s2" d="m1115.5 1385.58c-95.46 0-179.36-31.1-215.21-46.61c-1.77-0.77-2.59-2.83-1.82-4.6c0.77-1.78 2.83-2.6 4.6-1.82c64.67 27.99 288.15 107.54 448.75-43.45c42.81-42.28 69.86-82.37 82.61-122.51c0.58-1.84 2.52-2.85 4.39-2.28c1.84 0.59 2.86 2.56 2.28 4.39c-13.11 41.25-40.73 82.27-84.42 125.42c-74.37 69.92-161.77 91.44-241.18 91.44z" />
					</g>
					<g id="&lt;Group&gt;">
						<path id="&lt;Path&gt;" class="s2" d="m1445.63 1045.82c-1.87 0-3.42-1.48-3.5-3.36c-2.45-64.17 6.8-124.48 145.4-212.9c61.59-39.29 104.32-101.6 120.29-175.44c16.84-77.85 1.74-158.17-42.53-226.19c-13.84-21.29-30.51-41.78-49.54-60.91c-1.36-1.37-1.36-3.58 0.01-4.95c1.37-1.36 3.58-1.36 4.95 0.01c19.37 19.46 36.34 40.33 50.44 62.02c45.29 69.59 60.74 151.8 43.51 231.49c-16.37 75.68-60.19 139.56-123.37 179.87c-135.47 86.42-144.54 144.75-142.16 206.72c0.07 1.93-1.43 3.56-3.36 3.64c-0.05 0-0.1 0-0.14 0z" />
					</g>
				</g>
			</g>
			<path id="&lt;Path&gt;" class="s3" d="m1426.18 1240.98c0 8.07-55.4 14.62-123.74 14.62c-68.34 0-123.74-6.55-123.74-14.62c0-8.07 55.4-14.62 123.74-14.62c68.34 0 123.74 6.55 123.74 14.62z" />
			<path id="&lt;Path&gt;" class="s4" d="m1155.48 1273.75c0 11.97-82.71 21.69-184.66 21.69c-14.34 0-28.27-0.21-41.63-0.63c-1.4-0.07-2.87-0.07-4.27-0.14c-20.99-17.42-38.76-34.85-54.51-51.92c19.1 1.54 31.77 4.13 31.77 7c0 1.61-3.92 3.08-10.5 4.34c24-1.33 50.8-2.03 79.14-2.03c101.95 0 184.66 9.66 184.66 21.69z" />
			<g id="&lt;Group&gt;">
				<g id="Слой16">
					<path id="&lt;Path&gt;" class="s5" d="m831.81 869.67c49.36 0 89.37 38.65 89.37 86.32c0 47.68-40.01 86.32-89.37 86.32c-49.36 0-89.37-38.65-89.37-86.32c0-47.68 40.01-86.32 89.37-86.32z" />
					<g id="&lt;Clip Group&gt;" clip-path="url(#cp1)">
						<g id="&lt;Group&gt;">
							<g id="&lt;Group&gt;">
								<path id="&lt;Path&gt;" class="s6" d="m811.13 979.68c18.69-23.82 32.41-43.29 41.17-58.42l31.98 10.35c-15.4 26.69-28.04 46.17-37.93 58.42l-35.22-10.35z" />
							</g>
							<g id="&lt;Group&gt;">
								<path id="&lt;Path&gt;" class="s6" d="m796.61 945.08c0.18 15.26 1.99 26.96 5.44 35.08c-29.37-3.45-50.41-11.99-63.12-25.62l5.4-31.4c17.24 12.16 34.66 19.47 52.28 21.94z" />
							</g>
							<g id="&lt;Group&gt;">
								<path id="&lt;Path&gt;" class="s6" d="m808.79 987.96c5.38 20.96 14.99 35.64 28.82 44.06c-10.61 6.77-18.6 11.4-23.96 13.9c-13.29-11.11-22.16-23.81-26.6-38.09c10.34-8.23 17.59-14.86 21.74-19.87z" />
							</g>
							<g id="&lt;Group&gt;">
								<path id="&lt;Path&gt;" class="s6" d="m841.43 866.04c6.45 2 24.37 10.97 53.74 26.9c-0.67 12.44-3.64 21.83-8.93 28.17c-11.36-23.95-28.74-37.57-52.13-40.86l7.31-14.21z" />
							</g>
							<g id="Слой20">
								<g id="&lt;Group&gt;" style="opacity: .3">
									<path id="&lt;Path&gt;" class="s7" d="m916 870.9c35.98 16.15 52.39 59.27 11.01 163.71c-27.59 69.64-87.33 61.14-179.23-25.48c34.51 25.35 97.48 32.38 123.3-34.49c17.22-44.58 5.93-82.11-33.87-112.58c28.54-4.87 54.8-1.93 78.79 8.84z" />
								</g>
							</g>
						</g>
					</g>
				</g>
			</g>
			<g id="&lt;Group&gt;">
				<g id="Слой6">
					<path id="&lt;Path&gt;" class="s8" d="m982.36 273.98c1.69 16.01 4.02 28.75 6.98 38.23c4.44 14.22-28.42 44.09-43.64 43.91c-15.23-0.18 1.58-51.93 4.85-56.52c2.18-3.06 12.79-11.6 31.81-25.62z" />
				</g>
			</g>
			<path id="&lt;Path&gt;" class="s5" d="m771.87 456.74c-6.34 9.13-26.33 31.96-60.52 64.15c-22.79 21.46-47.84 14-75.16-22.37l44.8-48.35c6.29-4.41 13.44-11.65 21.44-21.71c16.89-3.08 40.03 6.35 69.43 28.28z" />
			<g id="&lt;Clip Group&gt;" clip-path="url(#cp2)">
				<g id="&lt;Group&gt;">
					<g id="Слой25" style="opacity: .1">
						<path id="&lt;Path&gt;" class="s7" d="m714.95 422.64c3.69 1.79 52.26 35.26 52.44 44c0.18 8.74-15.44 36.07-28.13 48.79c-12.69 12.72-32.36 23.36-60.5 25.87c-28.14 2.51-55.66-41.74-31.87-30.27c23.79 11.47 28.29 15.9 48.72 6.62c13.62-6.19 30.16-24.26 49.61-54.22c-5.94-7.13-21.86-18.33-47.76-33.59c9.2-5.99 15.03-8.39 17.49-7.2z" />
					</g>
				</g>
			</g>
			<path id="&lt;Path&gt;" class="s9" d="m689.92 490.06l-11.76-6.51c9.06 8.25 10.44 15.29 4.14 21.11l-26.2-24.07c0.51 2.86 2.86 7.88 7.07 15.06c4.21 7.18 4.24 12.93 0.1 17.26c-5.01-3.17-12.3-9.73-21.86-19.68c3.94 4.7 4.27 9.84 0.98 15.41c-8.05-6.34-18.98-14.01-17.24-20.91c1.74-6.89 9.92-21.59 19.87-31.32c9.95-9.74 14.9-7.66 27.77-10.1c8.58-1.62 12.92 1.06 13.04 8.06c2.49-1.22 4.09-1.26 4.8-0.13c-0.21 2.07 0.86 5.94 3.22 11.62c2.36 5.68 1.35 9.58-3.03 11.71c3.29 4.32 2.99 8.47-0.89 12.47z" />
			<g id="&lt;Clip Group&gt;" clip-path="url(#cp3)">
				<g id="&lt;Group&gt;">
					<g id="Слой26">
						<path id="&lt;Path&gt;" class="s8" d="m621.59 482c0.48-8.96 8.91-16.33 18.25-26.09c9.34-9.75 27.94-13.58 36.6-13.38c8.66 0.21 9.59 7.88 16.55 8.82c6.96 0.95 2.43 10.91 3.35 17.21c0.62 4.2 0.86 9.18 0.74 14.95c-4.89 9.38-6.87 11.8-5.93 7.26c1.4-6.81 1.42-10.38-3.19-15.54c-4.47-5-14.31-23.12-21.94-13.62c-4.66 5.8 9.4 16.9 12.6 21.53c1.87 2.7 5 5.99 9.38 9.85l-4.13 10.28c1.5-8.01 0.4-12.59-5.22-18.19c-5.22-5.19-16.88-21.81-23.08-17.7c-5.66 3.74-5.71 7.98-0.16 12.73c0.51 0.97 2.56 3.52 6.14 7.66c3.58 4.14 5.03 11.29 4.33 21.45c-0.24-9.77-13.47-29.1-19.92-30.88c-6.04-1.67-8.61 0.93-7.7 7.8l5.8 12.12c-2.34-3.89-6.07-10.15-11.64-9.83c-3.71 0.21-5.29 2.93-4.72 8.13c-4.39-3.75-6.43-8.61-6.11-14.59z" />
					</g>
				</g>
			</g>
			<g id="&lt;Group&gt;">
				<path id="&lt;Path&gt;" class="s2" d="m951.52 348.82c24.95-15 35.21-34.85 30.77-59.57c-6.65-37.08 225.74-7.35 288.16 57.38c43.07 63.49 69.67 122.62 79.78 177.39c25.78 9.46 40.75 21.16 44.91 35.11c6.23 20.93-10.61 53.28-26.38 51.02c-15.77-2.26-51.75-42.76-54.14-49.19c-5.46-14.72-4.48-23.07-9.71-41.86c-5.24-18.79-61.11-90.36-70.73-126.66c-29.68 7.75-56.97 8.49-81.88 2.22c-20.66 9-39.83 14.96-57.51 17.89c-9.36 65.95-9.42 113-0.16 141.14c13.89 42.21 31.5 83.9 39.18 110.16c-28.23-33.86-69.54-39.16-123.94-15.91c-41.17 23.64-82.16 33.83-122.96 30.59c-15-22.59-25.57-56.37-31.71-101.35c-7.86-57.61-11.11-88.03-34.93-138.05c-22.19 18.81-38.6 29.59-49.24 32.34c-22.09-14.1-38.59-24.93-49.49-32.49c-16.35-11.33-22.89-14.3-29.04-12.39c53.59-99.29 112.28-150.48 176.05-153.57c20.57 63.94 48.22 89.21 82.96 75.82z" />
				<g id="&lt;Clip Group&gt;" clip-path="url(#cp4)">
					<g id="&lt;Group&gt;">
						<g id="&lt;Group&gt;">
							<path id="&lt;Path&gt;" class="s6" d="m938.97 680.41c4.92 7.01 3.22 16.69-3.79 21.61c-2.71 1.9-5.82 2.82-8.9 2.82c-4.89 0-9.7-2.3-12.72-6.61c-39.29-56-41.84-89.02-44.8-127.26c-1.79-23.14-3.82-49.36-14.46-86.37c-8.29-28.84-14.37-58.66-18.85-86.67c-69.65 55.89-110.03 109-110.47 109.58c-3.05 4.05-7.7 6.19-12.42 6.19c-3.25 0-6.52-1.01-9.31-3.11c-6.85-5.15-8.23-14.86-3.1-21.72c1.99-2.66 48.62-64.1 130.29-126.43c-2-16.3-3.46-31.39-4.52-44.56c-72.76 57.38-114.68 112.75-115.13 113.34c-3.05 4.06-7.71 6.21-12.42 6.21c-3.24 0-6.51-1.01-9.3-3.11c-6.86-5.15-8.24-14.87-3.1-21.72c2.05-2.74 51.27-67.76 137.45-131.91c0.05-0.04 0.11-0.06 0.17-0.1c-0.36-8.37-0.46-13.53-0.48-14.46c-0.14-8.57 6.69-15.62 15.26-15.76c0.09 0 0.17 0 0.26 0c8.45 0 15.37 6.78 15.51 15.26c0.02 1.12 2.18 113.69 29.97 210.4c11.51 40.04 13.67 67.94 15.57 92.55c2.82 36.45 4.86 62.79 39.27 111.83z" />
							<path id="&lt;Path&gt;" class="s6" d="m1007.92 675.95c4.64 7.21 2.55 16.8-4.66 21.44c-2.6 1.67-5.5 2.47-8.38 2.47c-5.1 0-10.1-2.51-13.07-7.13c-17.75-27.59-27.35-54.12-30.66-64.24c-10.65-32.6-15.82-60.3-22.16-103.12c-8.18-55.14-33.64-196-33.9-197.42c-1.52-8.43 4.07-16.51 12.5-18.03c8.45-1.53 16.51 4.08 18.03 12.5c0.26 1.42 25.81 142.77 34.06 198.39c6.22 41.99 10.95 67.37 20.97 98.04c2.93 8.98 11.46 32.53 27.26 57.09z" />
							<path id="&lt;Path&gt;" class="s6" d="m1063.22 642.86c3.55 7.8 0.1 17-7.7 20.55c-2.08 0.95-4.26 1.39-6.42 1.39c-5.9 0-11.53-3.38-14.13-9.09l-3.02-6.61c-10.68-23.34-16.56-36.19-23.58-71.39c-2.97-14.9-3.98-26.5-5.15-39.92c-1.8-20.64-4.05-46.34-14.84-97.81c-18.02-85.94-16.24-180.59-16.15-184.58c0.18-8.57 7.3-15.61 15.84-15.18c8.57 0.18 15.36 7.27 15.18 15.84c-0.02 0.94-1.77 95.17 15.5 177.55c11.17 53.29 13.51 80.01 15.38 101.48c1.14 13.03 2.04 23.33 4.67 36.55c6.31 31.65 11.03 41.96 21.37 64.54l3.05 6.68z" />
							<path id="&lt;Path&gt;" class="s6" d="m1211.57 342.44c-2.1 6.59-8.21 10.8-14.77 10.8c-1.56 0-3.16-0.24-4.73-0.74c-60.02-19.16-99.65-23.41-117.36-24.29c0.97 11.11 2.04 23.03 3.18 35.21c11.45 2.84 32.92 7.25 50.1 5.48c6.18-0.63 11.92-0.96 17.37-1.27c15.17-0.87 26.13-1.5 37.92-8.35c7.39-4.31 16.91-1.81 21.21 5.62c4.3 7.41 1.79 16.91-5.62 21.21c-18.2 10.58-34.49 11.51-51.73 12.5c-5.03 0.29-10.32 0.59-16.01 1.17c-3.69 0.38-7.48 0.54-11.3 0.54c-13.71 0-27.77-2.14-38.76-4.38c2.94 28.69 6.16 56.36 9.35 76.32c3.25 20.36 3.87 36.09 4.42 49.96c1.27 32.21 2.19 55.48 34.31 117.69c3.93 7.61 0.94 16.97-6.67 20.9c-2.28 1.18-4.71 1.73-7.11 1.73c-5.62 0-11.04-3.06-13.8-8.4c-35.28-68.33-36.42-97.23-37.74-130.7c-0.54-13.65-1.09-27.76-4.05-46.3c-10.44-65.46-20.89-206.06-21.33-212.01c-0.64-8.55 5.78-15.99 14.33-16.62c8.6-0.59 15.98 5.79 16.61 14.33c0.03 0.44 1.03 13.89 2.69 34.16c18.41 0.54 62.06 4.43 129.43 25.94c8.16 2.61 12.67 11.34 10.06 19.5z" />
						</g>
						<path id="&lt;Path&gt;" class="s7" d="m1207.38 301.84c23.24 28.7 19.67 63.51-10.69 104.41c-13.78 3.53-29.15 1.04-46.1-7.45c32.49-30.25 38.93-66.68 19.31-109.3l37.48 12.33z" />
						<g id="Слой21">
							<g id="&lt;Group&gt;" style="opacity: .2">
								<path id="&lt;Path&gt;" class="s7" d="m876.02 671.98c13.71-43.63 40.58-71.87 80.6-84.71c60.04-19.27 91.33-16.9 102.87-57.65c11.54-40.75 6.25-151.9 12.93-192.16c18.14 8.88 38.78 13.93 61.91 15.18c86.04 4.62 62.72 15.02 40.95 37.46c-9.49 9.78-31.39 11.69-45 28.78c-13.62 17.08-29.69 37.2-18.26 93.41c11.44 56.21 40.45 89.7 21.09 108.88c-19.36 19.18-239.96 44.6-257.09 50.82z" />
							</g>
						</g>
						<g id="Слой23">
							<g id="&lt;Group&gt;" style="opacity: .2">
								<path id="&lt;Path&gt;" class="s7" d="m762.13 466.33c36.12-20.79 54.85-36.22 56.19-46.31c5.66 9.12 10.92 20.87 15.79 35.24c3.84 11.35 5.97 43.83 7.74 58.69c-0.91-35.49-9.26-50.85-25.05-46.09c-23.69 7.14-43.84 16.32-50.47 11.11c-4.42-3.47-5.81-7.69-4.2-12.64z" />
							</g>
						</g>
						<g id="Слой24">
							<g id="&lt;Group&gt;" style="opacity: .1">
								<path id="&lt;Path&gt;" class="s7" d="m1174.73 368.84c24.26 16.17 47.83 17.83 70.69 4.98c15.3 45.47 35 84.91 59.09 118.3c6.79 7.7 11.7 20.32 14.73 37.88c4.54 26.33 36.42 64.6 51.3 60.96c14.88-3.64 20.79-2.99 26.44-14.16c5.65-11.17 22.5-15.75 6.85 13.57c-15.66 29.32-17.47 48.24-37.4 37.06c-19.92-11.18-75.3-79.23-87.73-112.87c-12.42-33.64-20.75-34.99-34.84-58.76c-14.08-23.77-51.09-38.4-68.22-40.21c-11.42-1.21-11.73-16.79-0.91-46.74z" />
							</g>
						</g>
					</g>
				</g>
			</g>
			<path id="&lt;Path&gt;" class="s10" d="m924.43 442.41l21.53 2.5l7.32 103.19l-13.4-1.72l-7.47-88.84l-8.34-1.58l0.35-13.55z" />
			<path id="&lt;Compound Path&gt;" fill-rule="evenodd" class="s10" d="m997.43 550.72c-27.83 1.11-32.18-14.93-34.32-48.04c-1.95-28.94-7.42-51.11 20.5-50.92c24.12 0.19 31.07 8.72 33.95 51.11c2.5 36.17-3.15 47.21-20.13 47.86zm9-48.6c-2.69-33.39-6.96-39.88-21.24-39.7c-16.6 0.37-12.8 17.62-11.04 40.35c1.95 26.06 4.92 38.58 21.33 37.19c10.11-0.74 13.17-9.55 10.94-37.84z" />
			<path id="&lt;Path&gt;" class="s11" d="m914.38 437.76l21.53 2.5l7.32 103.19l-13.4-1.72l-7.47-88.84l-8.34-1.58l0.35-13.55z" />
			<path id="&lt;Compound Path&gt;" fill-rule="evenodd" class="s11" d="m986.6 540.08c-27.83 1.11-32.18-14.93-34.32-48.04c-1.95-28.94-7.42-51.11 20.5-50.92c24.12 0.19 31.07 8.72 33.95 51.11c2.5 36.17-3.15 47.21-20.13 47.86zm9-48.6c-2.69-33.39-6.96-39.88-21.24-39.7c-16.6 0.37-12.8 17.62-11.04 40.35c1.95 26.06 4.92 38.58 21.33 37.19c10.11-0.74 13.17-9.55 10.94-37.84z" />
			<path id="&lt;Path&gt;" class="s7" d="m961.74 337.87c22-7.96 18.32-34.57 17.81-49.62c-0.34-10.03 6.19-15.44 19.61-16.24c0.72 18.37 5.59 53.51-27.79 80.42c-22.26 17.94-46.69 17.65-73.29-0.87c27.77-3.82 48.99-8.39 63.66-13.69z" />
			<g id="Слой22" style="opacity: .3">
				<path id="&lt;Path&gt;" class="s7" d="m998.39 282.31c1.69 45.18-12.55 115.04-55.38 119.66c-28.55 3.08-49.77-24.05-63.66-81.41c-9.59-35.19 117.35-83.43 119.04-38.25z" />
			</g>
			<path id="&lt;Path&gt;" class="s9" d="m1058.2 924.83c3.32 14.35 3.91 36.21 1.77 65.55c22.2-19.89 62.88-0.94 122.03 56.86c16.77 15.36 36.88 24.93 60.32 28.69c15.14 31.86 10.28 56.48-14.57 73.87c-15.66-21.71-43.17-38.98-82.53-51.82c-64.37-20.99-145.44-25.12-155.26-59.42c-9.83-34.3-25.57-95.52-30.64-125.59c-5.07-30.07 10.54-52.45 44.14-44.51c33.6 7.94 55.38 37.33 54.74 56.35z" />
			<g id="&lt;Clip Group&gt;" clip-path="url(#cp5)">
				<g id="&lt;Group&gt;">
					<g id="Слой12">
						<path id="&lt;Path&gt;" class="s8" d="m1065.43 944.11c-65.59 69.26-65.74 108.89-0.46 118.9c-2.21 20.46-9.82 27.88-22.84 22.27c-19.52-8.42-63.16-32.13-74.06-86.32c-10.91-54.19-21.63-90.82-10.13-111.37c11.5-20.55 57.88-22.96 74.14-13.28c16.26 9.68 32.09 26.26 33.52 35.21c0.96 5.96 0.9 17.5-0.17 34.59z" />
					</g>
					<path id="&lt;Path&gt;" class="s2" d="m1023.6 1073.42c50.49-3.78 65.73-34.88 45.72-93.32c25.5-6.64 50.89-1.21 76.16 16.29c37.91 26.24 89.96 69.69 105.07 68.61c15.11-1.07 14.96 14.57 13.98 38.8c-0.98 24.24-31.47 57.51-44.62 60.68c-67.56-48.39-132.99-78.74-196.3-91.07z" />
					<g id="&lt;Clip Group&gt;" clip-path="url(#cp6)">
						<g id="&lt;Group&gt;">
							<path id="&lt;Path&gt;" class="s10" d="m1024.68 1072.71c10.38-11.34 21.74-24.93 34.09-40.76c12.34-15.83 13.2-33.45 2.58-52.84l24.98 2.34c20.29 57.02 8.73 92.89-34.68 107.61l-26.97-16.35z" />
							<g id="Слой17" style="opacity: .3">
								<path id="&lt;Path&gt;" class="s7" d="m1055.02 1061.91c82.37 10.21 143.73 35.03 184.1 74.46c6.48 6.57 6.13 12.24-1.04 17.01c-10.75 7.15-12.22 8.42-25.72-0.69c-13.5-9.1-127.42-53-158.12-62.01c-30.7-9.01-44.49-15.7-37.38-22.45c4.74-4.5 17.46-6.61 38.16-6.31z" />
							</g>
						</g>
					</g>
				</g>
			</g>
			<path id="&lt;Path&gt;" class="s5" d="m951.73 809.46c7.88-3.76 18.28-0.16 31.2 10.79c19.39 16.43 94.27-16.83 92.93-8.98c-1.35 7.84-5.25 27.96-7.21 55.14c-1.31 18.13-0.99 35.2 0.95 51.21c-14.19 6.14-15.62 7.96-44.19-18.24c-19.06-17.47-43.48-10.28-73.28 21.58l-0.4-111.51z" />
			<g id="&lt;Clip Group&gt;" clip-path="url(#cp7)">
				<g id="&lt;Group&gt;">
					<g id="Слой18" style="opacity: .2">
						<path id="&lt;Path&gt;" class="s7" d="m1078.97 833.51c-25.5 8.4-37.54 22.36-36.13 41.87c1.42 19.5 13.4 30.72 35.96 33.65c7.61 11.55 4.65 18.47-8.86 20.75c-20.27 3.42-51.76-2.72-71.33-4.04c-19.56-1.33-36.45-2.76-38.99-16.17c-2.54-13.4-6.64-80.19-2.86-93.88c3.77-13.69 22.39-27.74 33.95-16.16c7.71 7.72 37.32 8.83 88.83 3.33l-0.58 30.65z" />
					</g>
				</g>
			</g>
			<path id="&lt;Path&gt;" class="s12" d="m999.44 839.99c-10.45 5.36-21.84-5.39-34.16-32.26c-12.32-26.86-17.51-37.56-15.57-32.1c25.68 11.36 42.64 17.71 50.87 19.05c12.35 2 26.16 28.54-1.14 45.31z" />
			<g id="Слой9">
				<path id="&lt;Path&gt;" class="s9" d="m1051.77 799.69c-34.22 20.47-66.77 14.57-97.65-17.7c11.58 11.5 23.14 52.93 17.85 108.55c-3.52 37.08-2.05 89.65 4.41 157.7c-15.69 7.66-36.79 1.47-63.3-18.56c18.27-135.13-57.63-230.5-81.49-306.27c-15.9-50.51 55.11-77.54 213.04-81.08c38.97 84.44 41.35 136.89 7.13 157.35z" />
				<g id="&lt;Clip Group&gt;" clip-path="url(#cp8)">
					<g id="&lt;Group&gt;">
						<g id="Слой11">
							<path id="&lt;Path&gt;" class="s8" d="m944.45 773.73c30.83-35.97 20.16-75.2-32.01-117.68c0.99-5.02 5.1-5.26 12.35-0.71c10.87 6.83 41.93 33.24 45.5 76.1c3.58 42.86-12.67 43.65-17.7 49.68c-3.35 4.02-6.07 1.55-8.14-7.4z" />
							<path id="&lt;Path&gt;" class="s8" d="m887.21 660.11c-26.56 10.84-39.78 24.26-39.65 40.25c0.19 23.99 29.93 61.28 50.4 114.41c20.47 53.14-24.06 12.33-43.73-12.92c-19.66-25.26-65.21-74.26-43.53-103.75c14.46-19.67 39.96-32.33 76.51-37.99z" />
						</g>
						<path id="&lt;Path&gt;" class="s5" d="m948.33 775.61c16.69-8.4 21.29-26.91 13.79-55.53c-11.25-42.93-41.71-64.03-52.05-66.21c-6.89-1.46 0.97-5.55 23.57-12.28c27.58 16.43 45.23 30.66 52.95 42.67c11.57 18.03 29.71 60.15 32.34 87.31c2.63 27.16 4.46 49.97-12.25 43.35c-17.11-6.79-46.85-22.81-58.35-39.32z" />
						<path id="&lt;Path&gt;" class="s2" d="m844.72 775.09c10.39 6.89 25.03 4.35 43.93-7.63c28.35-17.98 52.59-5.44 68.25 17.34c15.66 22.79 32.62 62 31.53 81.96c-0.73 13.31-1.55 64.88-2.46 154.72l2.09 33.96c-25.64 11.11-48.04 9.14-67.18-5.91c-19.15-15.05-28.06-26.54-26.75-34.48c8.37-67.59 5.47-116.74-8.7-147.47c-14.17-30.72-27.74-61.56-40.72-92.51z" />
						<g id="&lt;Clip Group&gt;" clip-path="url(#cp9)">
							<g id="&lt;Group&gt;">
								<path id="&lt;Path&gt;" class="s10" d="m841.35 770.68c5 1.89 23.88-6.49 44.15-17.9c20.28-11.4 34.92-14.46 48.2-8.6c13.28 5.86 32.68 37.34 22.64 34.12c-10.05-3.22-26.65 5.5-50.17 18.89c-15.68 8.93-31.13 13.45-46.34 13.59c-15.65-27.99-21.81-41.36-18.47-40.1z" />
								<g id="Слой13" style="opacity: .2">
									<g id="&lt;Group&gt;">
										<path id="&lt;Path&gt;" class="s13" d="m875.96 768.1c22.23 40.53 38.66 93.6 49.27 159.2c10.62 65.6 12.76 107.61 6.42 126.02c-21.52-4.82-31.5-12.17-29.95-22.05c2.33-14.83-8.19-135.11-26.97-186.76c-18.79-51.65-30.04-61.96-32.01-67.56c-1.31-3.74 9.77-6.69 33.24-8.84z" />
									</g>
								</g>
							</g>
						</g>
					</g>
				</g>
			</g>
			<g id="Слой14">
				<g id="&lt;Group&gt;">
					<path id="&lt;Path&gt;" class="s14" d="m900.41 1021.98c16.26 3.19 29.59 8.42 40 15.69c15.62 10.91 18.94 9.01 27.3 7.41c8.37-1.61 6.35-17.58 7.1-25.83c3.39 9.17 6.96 20.24 10.72 33.22c5.63 19.47 4.63 29.65 0.25 32.86c-4.39 3.22-0.36 10.73-5.2 12.9c-4.84 2.18-8.82-7.01-9.57-7.89c-0.5-0.59-2.21 0.08-5.13 2.01c-1.5 5.7-3.97 9.39-7.42 11.05c-4.92-4.73-9.24-6.81-12.96-6.23c-5.57 0.87-29.21 7.01-35.98 12.06c1.01 3.29 0.3 5.78-2.12 7.46l-4.9-5.9c-9.89 1.79-16.49 2.55-19.81 2.27c1.07 5.42 0.25 8.32-2.45 8.69c-2.73 0.86-4.84-2.24-6.3-9.29l-5.61-1.09c-0.8 3.98-2.55 6.19-5.24 6.63c-2.07-1.73-3.32-3.99-3.74-6.8l-7.65 0.51c-0.82 3.85-2.97 5.66-6.44 5.45l-3.32-8.77l-10.57-2.06c-1.11 3.14-3.08 4.92-5.92 5.33l-3.05-8.31c-5.33-1.61-8.81-3.63-10.43-6.06c-2.43-3.64-5.54-15.36 22.06-22.9c27.6-7.55 27.83-9.92 38.93-23.6c11.11-13.68 20.85-24.92 27.46-28.79z" />
					<g id="&lt;Clip Group&gt;" clip-path="url(#cp10)">
						<g id="&lt;Group&gt;">
							<path id="&lt;Path&gt;" class="s6" d="m809.24 1086.26c10.12 20.5 34.15 27.79 72.09 21.88c56.91-8.87 62.87-12.83 81.12-20.98c18.24-8.14 27.26-18.04 29.29-12.12c2.03 5.92 5.66 17.2-7.03 24.44c-12.69 7.24-14.31 10.56-40.66 16.6c-26.35 6.03-46.35 11.4-77.73 10.25c-31.38-1.14-63.04-11.11-64.86-20.71c-1.82-9.6 2.47-18.45 7.78-19.36z" />
							<path id="&lt;Path&gt;" class="s10" d="m892.31 1024.4c28.63 5.22 41.39 11.59 38.26 19.1c-4.7 11.28-12.8 18.91-21.94 22.3c-9.14 3.39 5.27 13.4 21.54 12.95c16.27-0.44 56.5-17.23 51.12-10.02c-5.38 7.21-30.68 17.57-55.98 27.62c-25.31 10.06-132.12 0.27-99.19-22.56c21.96-15.23 44.02-31.69 66.2-49.39z" />
						</g>
					</g>
				</g>
				<g id="&lt;Group&gt;">
					<g id="&lt;Group&gt;">
						<path id="&lt;Path&gt;" class="s11" d="m950.58 1083.38c-0.74 0-1.48-0.31-2-0.92l-14.57-17.04c-0.94-1.11-0.81-2.76 0.29-3.7c1.1-0.94 2.76-0.81 3.7 0.29l14.57 17.04c0.94 1.11 0.81 2.76-0.29 3.7c-0.5 0.42-1.1 0.63-1.7 0.63z" />
					</g>
				</g>
				<g id="&lt;Group&gt;">
					<g id="&lt;Group&gt;">
						<path id="&lt;Path&gt;" class="s11" d="m964.98 1078.03c-0.74 0-1.48-0.31-2-0.92l-14.57-17.05c-0.94-1.1-0.81-2.75 0.29-3.7c1.11-0.94 2.76-0.81 3.7 0.29l14.57 17.05c0.94 1.1 0.81 2.75-0.29 3.7c-0.5 0.42-1.1 0.63-1.7 0.63z" />
					</g>
				</g>
				<g id="&lt;Group&gt;">
					<g id="&lt;Group&gt;">
						<path id="&lt;Path&gt;" class="s11" d="m978.97 1071.7c-0.74 0-1.48-0.31-2-0.92l-14.57-17.05c-0.94-1.1-0.81-2.75 0.29-3.7c1.11-0.94 2.76-0.81 3.7 0.29l14.57 17.05c0.94 1.1 0.81 2.75-0.29 3.7c-0.5 0.42-1.1 0.63-1.7 0.63z" />
					</g>
				</g>
			</g>
			<g id="Слой15">
				<path id="&lt;Path&gt;" class="s6" d="m1286.89 1071.07c5.57 2.17 8.49 4.81 8.76 7.92c0.4 4.67-5.36 4.14-8.12 8.94c-2.76 4.79-6.62 13.41-1.97 14.59c4.65 1.18 4.81 4.03 2.01 7.37c-2.8 3.34-10.19 2.65-14.03 8.42c-3.85 5.77-11.13 35.95-7.21 40.53c3.91 4.58 8.83 6.97 11.06 11.14c2.22 4.18-1.78 5.35-6.71 8.34c-4.93 2.99-8.05 13.72-1.84 17.69c6.22 3.96 12.86 9.33 6.07 12.37c-4.52 2.02-8.65 3.17-12.38 3.45c-2.8 7-2.55 12.12 0.77 15.36c4.97 4.86 1.84 8.5-5.9 8.23c-5.16-0.18-8-0.92-8.53-2.21c5.59-11.61 8.9-21.82 9.95-30.63c1.57-13.21 1.85-44.29 3.28-57.3c1.42-13.01 3.3-23.77 9.09-33.18c5.78-9.4 15.98-32.11 15.7-41.02z" />
				<path id="&lt;Path&gt;" class="s14" d="m1259.73 1056.23c16.52 0.4 21.62-2 27.49 18.22c5.86 20.22-11.35 36.77-18.9 59.01c-7.55 22.25 6.54 28.15 4.4 42.23c-2.12 14.08-8.02 67.3-38.42 65.67c-30.4-1.63-20.53-51.26-23.46-75.43c-1.96-16.12-4.88-28.11-8.78-35.99c10.28 5.7 28.72-0.84 37.54-12.45c8.82-11.61 12.19-29 1.03-38.31c-7.44-6.2-10.42-12.33-8.95-18.39c1.26-3.77 11.52-4.95 28.04-4.55z" />
				<g id="&lt;Clip Group&gt;" clip-path="url(#cp11)">
					<g id="&lt;Group&gt;">
						<path id="&lt;Path&gt;" class="s10" d="m1229.62 1052.24c4.24-5.77 37.46-6.76 45.33-3.86c7.87 2.89 19.19 10.45 20.03 32.03c0.84 21.58-9.37 46.07-13.85 76.19c-4.48 30.12-28.32 86.5-47.02 98.36c-18.69 11.85-21.34-13.81-32.3-38.06c-10.96-24.24-2.57-63.09-3.22-75.45c-0.65-12.36-3.98-14.64 2.88-11.26c6.85 3.37 14.46 5.9 24.39 1.38c9.94-4.52 17.68-8.98 16.81-2.07c-0.86 6.91 2.17 29.85 1.31 64.49c-0.86 34.65 6.05 21.96 11.98 3.64c5.92-18.31 0.18-49.34-0.17-56.14c-0.36-6.79-7.8-13.05-5.99-25.14c1.81-12.09 30.99-32.47 28.22-41.44c-2.77-8.97-10.39-9.41-25.23-7.32c-9.9 1.4-17.88 0.13-23.94-3.79c-2.31-3.85-2.05-7.7 0.77-11.55z" />
						<path id="&lt;Path&gt;" class="s6" d="m1291.6 1060.67c8.39 5.54 7.51 52.4 2.14 82.5c-5.37 30.1-16.63 86.73-38.87 103.29c-14.82 11.04-26.29 8.7-34.42-7.01c8.58-1.57 18.91 9.56 36.77-26.09c13.92-27.81 0.44-41.81 2.9-63.7c4.07-36.25 16.99-35.65 21.12-61.85c2.76-17.47-1.6-28.13-13.09-32c3.53-6.95 15.06-0.69 23.45 4.86z" />
					</g>
				</g>
				<g id="&lt;Group&gt;">
					<g id="&lt;Group&gt;">
						<path id="&lt;Path&gt;" class="s11" d="m1253.81 1114.68c-1.06 0-2.05-0.64-2.45-1.69c-0.51-1.35 0.16-2.87 1.52-3.39l17.84-6.8c1.35-0.51 2.87 0.16 3.39 1.52c0.51 1.35-0.16 2.87-1.52 3.39l-17.84 6.8c-0.31 0.12-0.62 0.17-0.94 0.17z" />
					</g>
				</g>
				<g id="&lt;Group&gt;">
					<g id="&lt;Group&gt;">
						<path id="&lt;Path&gt;" class="s11" d="m1255.07 1100.9c-1.06 0-2.05-0.64-2.45-1.69c-0.51-1.35 0.16-2.87 1.52-3.39l17.84-6.8c1.35-0.5 2.87 0.16 3.39 1.52c0.51 1.35-0.16 2.87-1.52 3.39l-17.84 6.8c-0.31 0.12-0.62 0.17-0.94 0.17z" />
					</g>
				</g>
				<g id="&lt;Group&gt;">
					<g id="&lt;Group&gt;">
						<path id="&lt;Path&gt;" class="s11" d="m1255.46 1087.15c-1.06 0-2.05-0.64-2.45-1.69c-0.51-1.35 0.16-2.87 1.52-3.39l17.84-6.81c1.35-0.51 2.86 0.16 3.39 1.52c0.51 1.35-0.16 2.87-1.52 3.39l-17.84 6.81c-0.31 0.12-0.62 0.17-0.94 0.17z" />
					</g>
				</g>
			</g>
			<path id="&lt;Path&gt;" class="s2" d="m1046.69 634.64c20.79-1.31 43.83-7.37 69.12-18.17c28.61 46.64 34 94.67 16.2 144.08c-26.7 55.12-71.29 81.39-133.77 78.82c16.34 0.28 17.82-24.39 4.45-74.01c-15.6-76.57-43.17-113.65-82.72-111.25c38.69-10.08 95.55-17.51 126.72-19.47z" />
			<g id="&lt;Clip Group&gt;" clip-path="url(#cp12)">
				<g id="&lt;Group&gt;">
					<g id="&lt;Group&gt;">
						<g id="Слой10">
							<g id="&lt;Group&gt;">
								<path id="&lt;Path&gt;" class="s6" d="m970.05 756.45c-1.44 0-2.78-0.89-3.29-2.32c-0.65-1.82 0.3-3.82 2.12-4.47c1.65-0.59 165.22-60.15 141.59-148c-0.51-1.87 0.6-3.79 2.47-4.29c1.9-0.5 3.79 0.61 4.28 2.47c10.55 39.2-11.59 78.76-64.02 114.41c-38.96 26.49-81.55 41.84-81.97 41.99c-0.39 0.14-0.79 0.2-1.18 0.2z" />
							</g>
						</g>
					</g>
					<g id="&lt;Group&gt;">
						<g id="Слой101">
							<g id="&lt;Group&gt;">
								<path id="&lt;Path&gt;" class="s6" d="m986.32 769.22c-1.43 0-2.77-0.88-3.29-2.3c-0.66-1.81 0.27-3.82 2.09-4.48c1.6-0.58 159.85-59.34 136.24-148.06c-0.5-1.87 0.61-3.78 2.48-4.28c1.89-0.49 3.79 0.62 4.28 2.48c10.52 39.52-10.69 79.19-61.32 114.72c-37.64 26.41-78.88 41.57-79.29 41.72c-0.39 0.14-0.8 0.21-1.2 0.21z" />
							</g>
						</g>
					</g>
					<g id="&lt;Group&gt;">
						<g id="Слой102">
							<g id="&lt;Group&gt;">
								<path id="&lt;Path&gt;" class="s6" d="m997.64 784.67c-1.42 0-2.76-0.87-3.28-2.29c-0.67-1.81 0.26-3.82 2.07-4.49c1.63-0.6 162.3-61.02 137.83-153.64c-0.49-1.87 0.62-3.78 2.49-4.27c1.89-0.5 3.79 0.62 4.28 2.49c10.86 41.11-10.5 82.24-61.76 118.95c-38.14 27.31-80 42.89-80.42 43.04c-0.4 0.15-0.81 0.22-1.21 0.22z" />
							</g>
						</g>
					</g>
					<g id="Слой19" style="opacity: .1">
						<path id="&lt;Path&gt;" class="s7" d="m979.17 625.7c23.28-6.8 93.72-27.71 142.84-35.18c49.13-7.47 9.8 3.26 29.77 50.49c19.97 47.22 4.01 87.87-0.33 125.37c-4.34 37.51-41.53 52.13-62.99 63.89c-21.45 11.76-71.97 18.96-85.39 23.29c-13.41 4.32-6.79-13.59-4.84-14.24c1.95-0.66 15.31 4.45 77.07-31.95c61.77-36.39 60.29-147.94 24.75-163.85c-23.68-10.61-82.89-7.19-177.63 10.27c22.31-14.19 41.22-23.56 56.74-28.09z" />
					</g>
				</g>
			</g>
			<g id="Слой1">
				<g id="&lt;Group&gt;">
					<path id="&lt;Path&gt;" class="s9" d="m992.25 229.82c10.19 0.66 11.67 13.45 9.78 27.88c-1.89 14.43-11.43 26.06-18.73 25.1c-7.28-0.95-9.58-14.13-7.68-28.56c1.89-14.43 9.29-24.9 16.63-24.42z" />
					<g id="&lt;Clip Group&gt;" clip-path="url(#cp13)">
						<g id="&lt;Group&gt;">
							<g id="Слой4">
								<path id="&lt;Path&gt;" class="s8" d="m986.42 236.17c0.22-7.34 2.72-10.09 7.49-8.26c9.23 2.64 12.23 11.25 9 25.83c-0.4-9.24-3.07-12.71-6.48-11.44c-2.93 1.09-6.58 8.84-10.95 23.26c0.4-12.25 0.71-22.05 0.93-29.38z" />
							</g>
						</g>
					</g>
				</g>
				<g id="&lt;Group&gt;">
					<path id="&lt;Path&gt;" class="s8" d="m870.35 264.61c3.02 14.55 2.42 27.99-3.59 29.24c-6.02 1.25-15.18-10.16-18.2-24.71c-3.02-14.55-3.06-27.56 5.42-28.63c6.1-0.77 13.35 9.55 16.38 24.1z" />
				</g>
				<g id="&lt;Group&gt;">
					<path id="&lt;Path&gt;" class="s9" d="m922.69 167.7c47.87-1.44 63.94 40.11 59.08 98.18c-4.76 56.97-25.74 96.68-58.03 98.67c-20.46 1.26-37.89-28.66-56.77-69.4c-3.45-7.46-0.75-17.97-4.05-33.85c-12.51-60.18 16.18-92.29 59.76-93.6z" />
					<g id="&lt;Clip Group&gt;" clip-path="url(#cp14)">
						<g id="&lt;Group&gt;">
							<g id="Слой3">
								<path id="&lt;Path&gt;" class="s8" d="m863.65 281.13c-0.89-11.08-2.47-37.25-2.44-46.82c0.03-9.58 5.64-8.34 20.22-5.49c14.58 2.85 20.73 6.56 39.57-3.2c18.83-9.76 35.67-10.35 39.23-8.18c3.56 2.17 9.72 25.66 4.44 16.47c-5.28-9.2-18.69-0.47-45.6 13.08c-26.91 13.55-42.8-6.85-47.38-8.01c-4.57-1.16-4.58 15.85-4.76 27.46c-0.18 11.62 0.05 23.56 3.99 31.76c3.94 8.2 19.32 25.65 8.2 14.92c-11.11-10.74-14.59-20.92-15.47-32z" />
							</g>
						</g>
					</g>
				</g>
				<g id="&lt;Group&gt;">
					<path id="&lt;Path&gt;" class="s7" d="m939.35 286.8c2.12 0 3.84 2.71 3.84 6.06c0 3.34-1.72 6.06-3.84 6.06c-2.12 0-3.84-2.71-3.84-6.06c0-3.34 1.72-6.06 3.84-6.06z" />
				</g>
				<g id="&lt;Group&gt;">
					<path id="&lt;Path&gt;" class="s7" d="m889.06 288.35c2.12 0 3.84 2.66 3.84 5.93c0 3.28-1.72 5.93-3.84 5.93c-2.12 0-3.84-2.66-3.84-5.93c0-3.28 1.72-5.93 3.84-5.93z" />
				</g>
				<g id="&lt;Group&gt;">
					<path id="&lt;Path&gt;" class="s15" d="m863.65 265.75c-0.46 13.65 1.21 24.19 4.99 31.63c5.68 11.16 13.53 12.43 18.72 24.74c5.19 12.32 16.96 35.59 34.92 34.18c17.97-1.41 28.6-16.78 34.44-33.61c5.83-16.84 6.52-23.95 14.44-33.29c7.92-9.34 5.97-25.78 2.15-36.47c-3.81-10.69 2.69-18.56 8.84-25.6c6.14-7.04 5.16 14.46 4.64 29.28c-0.53 14.82-12.29 63.25-27.89 98.16c-3.6 6.74-15.34 11.05-35.2 12.93c-12.56 1.06-21.41-2.58-26.55-10.91c-12.04-19.5-26.47-40.46-31.84-55.82c-3.93-12.18-4.48-23.92-1.67-35.23z" />
				</g>
				<path id="&lt;Path&gt;" class="s16" d="m907.75 342.79c7.54 4.37 17.92 2.89 31.16-4.44c-4.04 7.79-8.66 12.45-13.86 13.98c-7.8 2.29-13.38-4-17.3-9.54z" />
				<g id="&lt;Group&gt;">
					<path id="&lt;Path&gt;" class="s7" d="m926.09 334.73c5.69-2.86 14.66-3.3 26.9-1.32c1.06 2.16-1.4 3.81-7.38 4.94c1.25 3.48-2.88 4.04-8.74 3.95c-3.91-0.06-9.78-0.01-17.62 0.14c-4.13-0.09-9.54 1.3-14.79 2.27c-3.5 0.65-5.39-0.23-5.67-2.63c-2.31 0.42-4.24-0.7-5.8-3.38c5.73-5 12.62-6.28 20.67-3.84c3.36 2.04 7.5 1.99 12.44-0.13z" />
				</g>
				<path id="&lt;Path&gt;" class="s17" d="m925.08 333.25c5.69-2.86 14.66-3.3 26.9-1.32c1.06 2.16-1.4 3.81-7.38 4.94c1.25 3.48-2.88 4.04-8.74 3.95c-3.91-0.06-9.78-0.01-17.62 0.14c-4.13-0.09-9.54 1.3-14.79 2.27c-3.5 0.65-5.39-0.23-5.67-2.63c-2.31 0.42-4.24-0.7-5.8-3.38c5.73-5 12.62-6.28 20.67-3.84c3.36 2.04 7.5 1.99 12.44-0.13z" />
				<path id="&lt;Path&gt;" class="s8" d="m920.8 302.01c0.94 10.1 3.16 21.14 8.54 18.54c5.37-2.6 0.19 9.08-7.39 15.87c-7.58 6.79-16.01-6.61-18.23-11.7c-2.21-5.09-0.38-1.64 2.59-3.43c1.97-1.19 3.79-10.26 5.44-27.2c2.71-11.05 8.11-2.18 9.05 7.91z" />
				<g id="&lt;Clip Group&gt;" clip-path="url(#cp15)">
					<g id="&lt;Group&gt;">
						<path id="&lt;Path&gt;" class="s16" d="m914.03 285.09c-0.8 24.22-0.61 38.58 0.57 43.08c1.77 6.75 7.35 9.92 13.87 4.66c6.53-5.26-7.58 13.8-12.02 11.88c-4.45-1.92-20.86-14.55-20.54-21.22c0.33-6.67 1.25-7.4 5.74-13.69c4.49-6.29 9.73-30.46 12.38-24.71z" />
					</g>
				</g>
				<path id="&lt;Path&gt;" class="s15" d="m864.27 250.6c0.55 7.58 0.06 17.09-1.48 28.53c-1.54-10.84-4.57-20.52-7.44-34.68c-5.94-29.22-10.19-51.57 30.88-78.82c41.08-27.24 85.44-0.87 95.67 21.98c6.83 15.23 8.95 33.02 6.37 53.35c-1.92 9.33-3.49 16.32-4.71 20.95c-1.82 6.95-5.95 4.01-11.09-8.94c-5.14-12.95-11.12-31.26-21.24-28.8c-10.12 2.47-21.3 13.8-42.24 19.64c-13.96 3.89-26.71 0.03-38.24-11.59c-6.28-4.49-7.31 7.01-6.48 18.38z" />
				<g id="&lt;Clip Group&gt;" clip-path="url(#cp16)">
					<g id="&lt;Group&gt;">
						<g id="&lt;Group&gt;">
							<path id="&lt;Path&gt;" class="s18" d="m883.79 164.95c-3.05 1.92-22.03 26.31-22.08 44c-0.06 17.69 22.2 23.32 39.32 24.05c17.11 0.73 43.73-14.35 51.43-17.31c7.71-2.97 21.14 12.46 22.87 50.88c1.72 38.42-5.58-24.14-18.96-25.89c-13.39-1.76-54.74 15.37-66 13.76c-11.26-1.6-22.95 32.14-20.24 45.01c2.71 12.88 9.43 29.63 16.99 43.49c7.55 13.87 2.62 19.75-15.11-9.53c-17.73-29.28-27.27-53.45-29.46-91.99c-2.18-38.54-1.66-51.03 12.41-65.11c14.06-14.09 31.88-13.29 28.84-11.37z" />
						</g>
					</g>
				</g>
				<path id="&lt;Path&gt;" class="s17" d="m928.59 276.28c8.85-5.26 15.4-8.17 19.66-8.75c13.61-1.85 12.95 2.57 11.32 3.27c-1.68 0.72-7.86 1.31-11.12 3.05c-6.01 3.22-16.01 12.23-19.95 9.97c-3.28-1.88-3.05-5.22 0.1-7.55z" />
				<g id="&lt;Clip Group&gt;" clip-path="url(#cp17)">
					<g id="&lt;Group&gt;">
						<g id="Слой5">
							<path id="&lt;Path&gt;" class="s7" d="m926.72 278.28c0.67 3.88 3.07 4.83 7.18 2.85c6.16-2.96 10.61-6.07 14.92-8.15c4.31-2.08 8.72-2.03 10.12-2.7c1.39-0.67 1.36-0.18 0.99-1.74c-0.25-1.04 0.59-0.79 2.52 0.76c1.35 1 0.16 2.15-3.56 3.45c-5.58 1.95-14.83 5.63-19.95 9.02c-5.13 3.38-13.53 7.27-13.38 2.84c0.15-4.43-0.32-5.66 1.17-6.33z" />
						</g>
					</g>
				</g>
				<g id="&lt;Group&gt;">
					<path id="&lt;Path&gt;" class="s17" d="m901.02 285.83c-3.17 2.53-12.42-5.74-17.8-8.52c-2.92-1.51-8.22-1.65-9.71-2.25c-1.45-0.59-2.38-4.93 9.35-4.07c3.67 0.27 9.48 2.71 17.45 7.32c2.87 2.1 3.34 5.41 0.71 7.51z" />
					<g id="&lt;Clip Group&gt;" clip-path="url(#cp18)">
						<g id="&lt;Group&gt;">
							<g id="Слой51">
								<path id="&lt;Path&gt;" class="s7" d="m903.58 286.4c0.5 4.4-6.97 1.13-11.62-1.88c-4.64-3-12.81-6.02-17.72-7.56c-3.27-1.03-4.38-2.09-3.32-3.18c1.51-1.67 2.2-1.98 2.08-0.93c-0.19 1.58-0.26 1.1 0.99 1.66c1.25 0.56 4.99 0.2 8.83 1.97c3.84 1.76 7.88 4.54 13.37 7.06c3.66 1.68 5.62 0.56 5.86-3.36c1.33 0.56 1.03 1.82 1.53 6.23z" />
							</g>
						</g>
					</g>
				</g>
				<g id="&lt;Group&gt;">
					<g id="&lt;Group&gt;">
						<path id="&lt;Path&gt;" class="s18" d="m898.01 204.9c3.07 7.94 15.81 5.19 38.22-8.24c-7.07 15.07-40.75 32.19-47.81 15.48c-4.71-11.14 2.96-21.15 23-30.03c-9.71 8.46-17.67 11.79-13.4 22.78z" />
					</g>
				</g>
			</g>
		</g>
	</g>
</svg>