<svg width="1539" height="1871" viewBox="0 0 1539 1871" fill="none" xmlns="http://www.w3.org/2000/svg">
<mask id="path-1-inside-1_151_3" fill="white">
<path fill-rule="evenodd" clip-rule="evenodd" d="M769 117H775.02L800.95 130.038C818.237 138.73 829.658 144.425 835.215 147.122C840.771 149.82 859.678 158.587 891.937 173.423C924.195 188.26 940.864 195.753 941.945 195.902C943.025 196.052 951.591 199.574 967.643 206.468C983.696 213.361 996.042 218.457 1004.68 221.754C1013.33 225.051 1025.83 229.546 1042.19 235.241C1058.55 240.936 1068.89 244.532 1073.21 246.031C1077.54 247.53 1082.94 249.328 1089.42 251.426C1095.9 253.525 1104.24 256.072 1114.42 259.069C1124.62 262.066 1137.58 265.663 1153.32 269.86C1169.06 274.056 1184.34 277.802 1199.16 281.099C1213.98 284.396 1223.55 286.495 1227.87 287.394C1232.19 288.293 1245.93 290.84 1269.08 295.037C1292.24 299.233 1306.75 301.781 1312.61 302.68C1318.47 303.579 1332.83 305.826 1355.67 309.423C1378.51 313.02 1390.09 314.818 1390.4 314.818C1390.71 314.818 1401.82 316.916 1423.73 321.113C1445.65 325.309 1456.69 327.482 1456.84 327.632L1457.07 327.856L1455.68 394.845C1454.76 439.504 1452.44 497.2 1448.74 567.935C1445.04 638.67 1442.1 688.124 1439.94 716.298C1437.78 744.472 1435.31 768.6 1432.53 788.681C1429.75 808.762 1426.51 827.795 1422.81 845.778C1419.11 863.761 1415.09 881.895 1410.77 900.178C1406.45 918.461 1402.59 934.496 1399.19 948.283C1395.8 962.07 1391.79 976.907 1387.15 992.792C1382.53 1008.68 1379.75 1018.27 1378.82 1021.57C1377.9 1024.86 1376.51 1029.06 1374.65 1034.15C1372.8 1039.25 1370.64 1045.54 1368.17 1053.04C1365.71 1060.53 1361.85 1071.32 1356.59 1085.41C1351.35 1099.5 1347.03 1110.74 1343.63 1119.13C1340.24 1127.52 1336.07 1137.56 1331.13 1149.25C1326.19 1160.94 1319.86 1175.02 1312.14 1191.51C1304.43 1208 1299.8 1217.59 1298.25 1220.28C1296.71 1222.98 1291.08 1232.8 1281.35 1249.73C1271.63 1266.66 1265.76 1276.7 1263.75 1279.85C1261.75 1283 1256.96 1290.94 1249.4 1303.68C1241.84 1316.42 1236.9 1324.51 1234.58 1327.96C1232.27 1331.41 1228.72 1336.8 1223.93 1344.14C1219.15 1351.49 1215.3 1357.18 1212.36 1361.23C1209.43 1365.28 1206.03 1370.07 1202.17 1375.62C1198.31 1381.16 1194.61 1386.25 1191.06 1390.9C1187.51 1395.55 1184.73 1399.44 1182.72 1402.59C1180.72 1405.74 1177.79 1409.78 1173.93 1414.73C1170.07 1419.68 1166.37 1424.62 1162.81 1429.57C1159.27 1434.51 1155.41 1439.6 1151.24 1444.85C1147.08 1450.1 1143.53 1454.59 1140.59 1458.34C1137.66 1462.09 1131.41 1469.21 1121.83 1479.7C1112.27 1490.19 1101 1502.17 1088.03 1515.66C1075.07 1529.15 1063.65 1540.69 1053.77 1550.28C1043.89 1559.87 1037.33 1565.94 1034.09 1568.49C1030.85 1571.04 1023.28 1577.48 1011.4 1587.82C999.515 1598.16 992.262 1604.45 989.642 1606.7C987.015 1608.95 980.531 1614.49 970.19 1623.34C959.849 1632.18 953.057 1637.87 949.816 1640.42C946.575 1642.97 942.871 1645.96 938.704 1649.41C934.537 1652.86 928.749 1657.58 921.34 1663.58C913.931 1669.57 908.298 1673.99 904.439 1676.84C900.58 1679.69 896.876 1682.23 893.326 1684.48C889.776 1686.73 883.293 1690.62 873.878 1696.17C864.463 1701.72 858.29 1705.46 855.357 1707.41C852.424 1709.36 849.106 1711.38 845.401 1713.48C841.697 1715.58 837.839 1717.98 833.826 1720.67C829.813 1723.37 826.88 1725.32 825.028 1726.52C823.176 1727.72 819.163 1729.82 812.989 1732.81C806.815 1735.81 799.406 1739.26 790.763 1743.15C782.12 1747.05 776.1 1749.6 772.705 1750.8L767.611 1752.59L762.055 1751.24C758.35 1750.35 754.337 1748.85 750.016 1746.75C745.694 1744.65 738.44 1741.05 728.253 1735.96C718.066 1730.87 712.201 1727.72 710.658 1726.52C709.114 1725.32 705.178 1722.7 698.85 1718.65C692.522 1714.6 687.737 1711.61 684.496 1709.66C681.255 1707.71 674.926 1703.97 665.511 1698.42C656.096 1692.87 649.614 1688.98 646.064 1686.73C642.514 1684.48 638.81 1681.94 634.951 1679.09C631.092 1676.24 626.693 1672.87 621.754 1668.97C616.815 1665.08 610.256 1659.76 602.075 1653.01C593.895 1646.26 586.795 1640.42 580.776 1635.48C574.757 1630.53 565.959 1623.04 554.383 1613C542.807 1602.96 535.398 1596.66 532.157 1594.11C528.916 1591.56 521.816 1585.57 510.857 1576.13C499.899 1566.69 493.802 1561.37 492.567 1560.17C491.332 1558.97 485.853 1553.65 476.129 1544.21C466.406 1534.77 459.615 1528.03 455.756 1523.98C451.897 1519.93 443.408 1510.94 430.288 1497C417.169 1483.07 409.297 1474.53 406.674 1471.38C404.05 1468.23 400.191 1463.59 395.098 1457.44C390.004 1451.29 385.991 1446.35 383.059 1442.6C380.126 1438.85 377.194 1434.96 374.261 1430.91C371.328 1426.87 368.241 1422.68 365 1418.33C361.759 1413.98 358.826 1410.09 356.202 1406.64C353.579 1403.19 351.341 1400.12 349.488 1397.42C347.636 1394.72 345.089 1391.2 341.848 1386.86C338.607 1382.51 335.829 1378.62 333.514 1375.17C331.199 1371.72 328.112 1367.23 324.253 1361.68C320.394 1356.13 317.462 1351.79 315.455 1348.64C313.448 1345.49 310.207 1340.55 305.731 1333.8C301.255 1327.06 298.323 1322.42 296.934 1319.87C295.545 1317.32 291.686 1310.88 285.358 1300.54C279.029 1290.19 274.862 1283.45 272.856 1280.3C270.849 1277.15 265.833 1268.54 257.807 1254.45C249.781 1240.36 243.762 1229.72 239.749 1222.53C235.736 1215.34 232.186 1208.59 229.099 1202.3C226.012 1196.01 221.69 1186.57 216.134 1173.98C210.577 1161.39 207.799 1154.94 207.799 1154.64C207.799 1154.34 205.021 1147.45 199.464 1133.96C193.908 1120.47 189.586 1109.83 186.499 1102.04C183.412 1094.25 179.091 1082.41 173.534 1066.53C167.977 1050.64 162.421 1033.7 156.865 1015.72C151.308 997.738 145.134 975.858 138.343 950.082C131.552 924.305 126.767 905.123 123.989 892.534C121.211 879.946 117.352 861.663 112.413 837.685C107.474 813.708 104.542 797.973 103.615 790.48C102.689 782.987 100.683 760.058 97.596 721.693C94.5093 683.328 92.5027 654.405 91.576 634.923C90.65 615.441 89.5697 594.76 88.335 572.881C87.1003 551.001 85.4027 515.184 83.242 465.43C81.0807 415.675 80 380.458 80 359.777V328.755L83.01 327.182C85.0167 326.133 90.496 324.859 99.448 323.36C108.4 321.862 120.748 319.914 136.491 317.516C152.234 315.118 176.158 311.222 208.262 305.827C240.366 300.432 263.364 296.535 277.255 294.137C291.146 291.74 309.513 287.993 332.356 282.898C355.199 277.803 374.956 273.007 391.625 268.511C408.294 264.015 422.648 259.819 434.687 255.922C446.726 252.026 456.142 249.029 462.933 246.93C469.724 244.832 476.207 242.734 482.381 240.636C488.554 238.538 500.902 234.042 519.424 227.149C537.945 220.255 555.309 213.286 571.515 206.243C587.721 199.2 596.364 195.603 597.445 195.453C598.526 195.303 606.32 191.931 620.828 185.337C635.337 178.743 648.456 172.749 660.186 167.354C671.917 161.959 683.493 156.563 694.914 151.169C706.336 145.774 720.536 138.73 737.514 130.038L762.981 117H769V117Z"/>
</mask>
<path fill-rule="evenodd" clip-rule="evenodd" d="M769 117H775.02L800.95 130.038C818.237 138.73 829.658 144.425 835.215 147.122C840.771 149.82 859.678 158.587 891.937 173.423C924.195 188.26 940.864 195.753 941.945 195.902C943.025 196.052 951.591 199.574 967.643 206.468C983.696 213.361 996.042 218.457 1004.68 221.754C1013.33 225.051 1025.83 229.546 1042.19 235.241C1058.55 240.936 1068.89 244.532 1073.21 246.031C1077.54 247.53 1082.94 249.328 1089.42 251.426C1095.9 253.525 1104.24 256.072 1114.42 259.069C1124.62 262.066 1137.58 265.663 1153.32 269.86C1169.06 274.056 1184.34 277.802 1199.16 281.099C1213.98 284.396 1223.55 286.495 1227.87 287.394C1232.19 288.293 1245.93 290.84 1269.08 295.037C1292.24 299.233 1306.75 301.781 1312.61 302.68C1318.47 303.579 1332.83 305.826 1355.67 309.423C1378.51 313.02 1390.09 314.818 1390.4 314.818C1390.71 314.818 1401.82 316.916 1423.73 321.113C1445.65 325.309 1456.69 327.482 1456.84 327.632L1457.07 327.856L1455.68 394.845C1454.76 439.504 1452.44 497.2 1448.74 567.935C1445.04 638.67 1442.1 688.124 1439.94 716.298C1437.78 744.472 1435.31 768.6 1432.53 788.681C1429.75 808.762 1426.51 827.795 1422.81 845.778C1419.11 863.761 1415.09 881.895 1410.77 900.178C1406.45 918.461 1402.59 934.496 1399.19 948.283C1395.8 962.07 1391.79 976.907 1387.15 992.792C1382.53 1008.68 1379.75 1018.27 1378.82 1021.57C1377.9 1024.86 1376.51 1029.06 1374.65 1034.15C1372.8 1039.25 1370.64 1045.54 1368.17 1053.04C1365.71 1060.53 1361.85 1071.32 1356.59 1085.41C1351.35 1099.5 1347.03 1110.74 1343.63 1119.13C1340.24 1127.52 1336.07 1137.56 1331.13 1149.25C1326.19 1160.94 1319.86 1175.02 1312.14 1191.51C1304.43 1208 1299.8 1217.59 1298.25 1220.28C1296.71 1222.98 1291.08 1232.8 1281.35 1249.73C1271.63 1266.66 1265.76 1276.7 1263.75 1279.85C1261.75 1283 1256.96 1290.94 1249.4 1303.68C1241.84 1316.42 1236.9 1324.51 1234.58 1327.96C1232.27 1331.41 1228.72 1336.8 1223.93 1344.14C1219.15 1351.49 1215.3 1357.18 1212.36 1361.23C1209.43 1365.28 1206.03 1370.07 1202.17 1375.62C1198.31 1381.16 1194.61 1386.25 1191.06 1390.9C1187.51 1395.55 1184.73 1399.44 1182.72 1402.59C1180.72 1405.74 1177.79 1409.78 1173.93 1414.73C1170.07 1419.68 1166.37 1424.62 1162.81 1429.57C1159.27 1434.51 1155.41 1439.6 1151.24 1444.85C1147.08 1450.1 1143.53 1454.59 1140.59 1458.34C1137.66 1462.09 1131.41 1469.21 1121.83 1479.7C1112.27 1490.19 1101 1502.17 1088.03 1515.66C1075.07 1529.15 1063.65 1540.69 1053.77 1550.28C1043.89 1559.87 1037.33 1565.94 1034.09 1568.49C1030.85 1571.04 1023.28 1577.48 1011.4 1587.82C999.515 1598.16 992.262 1604.45 989.642 1606.7C987.015 1608.95 980.531 1614.49 970.19 1623.34C959.849 1632.18 953.057 1637.87 949.816 1640.42C946.575 1642.97 942.871 1645.96 938.704 1649.41C934.537 1652.86 928.749 1657.58 921.34 1663.58C913.931 1669.57 908.298 1673.99 904.439 1676.84C900.58 1679.69 896.876 1682.23 893.326 1684.48C889.776 1686.73 883.293 1690.62 873.878 1696.17C864.463 1701.72 858.29 1705.46 855.357 1707.41C852.424 1709.36 849.106 1711.38 845.401 1713.48C841.697 1715.58 837.839 1717.98 833.826 1720.67C829.813 1723.37 826.88 1725.32 825.028 1726.52C823.176 1727.72 819.163 1729.82 812.989 1732.81C806.815 1735.81 799.406 1739.26 790.763 1743.15C782.12 1747.05 776.1 1749.6 772.705 1750.8L767.611 1752.59L762.055 1751.24C758.35 1750.35 754.337 1748.85 750.016 1746.75C745.694 1744.65 738.44 1741.05 728.253 1735.96C718.066 1730.87 712.201 1727.72 710.658 1726.52C709.114 1725.32 705.178 1722.7 698.85 1718.65C692.522 1714.6 687.737 1711.61 684.496 1709.66C681.255 1707.71 674.926 1703.97 665.511 1698.42C656.096 1692.87 649.614 1688.98 646.064 1686.73C642.514 1684.48 638.81 1681.94 634.951 1679.09C631.092 1676.24 626.693 1672.87 621.754 1668.97C616.815 1665.08 610.256 1659.76 602.075 1653.01C593.895 1646.26 586.795 1640.42 580.776 1635.48C574.757 1630.53 565.959 1623.04 554.383 1613C542.807 1602.96 535.398 1596.66 532.157 1594.11C528.916 1591.56 521.816 1585.57 510.857 1576.13C499.899 1566.69 493.802 1561.37 492.567 1560.17C491.332 1558.97 485.853 1553.65 476.129 1544.21C466.406 1534.77 459.615 1528.03 455.756 1523.98C451.897 1519.93 443.408 1510.94 430.288 1497C417.169 1483.07 409.297 1474.53 406.674 1471.38C404.05 1468.23 400.191 1463.59 395.098 1457.44C390.004 1451.29 385.991 1446.35 383.059 1442.6C380.126 1438.85 377.194 1434.96 374.261 1430.91C371.328 1426.87 368.241 1422.68 365 1418.33C361.759 1413.98 358.826 1410.09 356.202 1406.64C353.579 1403.19 351.341 1400.12 349.488 1397.42C347.636 1394.72 345.089 1391.2 341.848 1386.86C338.607 1382.51 335.829 1378.62 333.514 1375.17C331.199 1371.72 328.112 1367.23 324.253 1361.68C320.394 1356.13 317.462 1351.79 315.455 1348.64C313.448 1345.49 310.207 1340.55 305.731 1333.8C301.255 1327.06 298.323 1322.42 296.934 1319.87C295.545 1317.32 291.686 1310.88 285.358 1300.54C279.029 1290.19 274.862 1283.45 272.856 1280.3C270.849 1277.15 265.833 1268.54 257.807 1254.45C249.781 1240.36 243.762 1229.72 239.749 1222.53C235.736 1215.34 232.186 1208.59 229.099 1202.3C226.012 1196.01 221.69 1186.57 216.134 1173.98C210.577 1161.39 207.799 1154.94 207.799 1154.64C207.799 1154.34 205.021 1147.45 199.464 1133.96C193.908 1120.47 189.586 1109.83 186.499 1102.04C183.412 1094.25 179.091 1082.41 173.534 1066.53C167.977 1050.64 162.421 1033.7 156.865 1015.72C151.308 997.738 145.134 975.858 138.343 950.082C131.552 924.305 126.767 905.123 123.989 892.534C121.211 879.946 117.352 861.663 112.413 837.685C107.474 813.708 104.542 797.973 103.615 790.48C102.689 782.987 100.683 760.058 97.596 721.693C94.5093 683.328 92.5027 654.405 91.576 634.923C90.65 615.441 89.5697 594.76 88.335 572.881C87.1003 551.001 85.4027 515.184 83.242 465.43C81.0807 415.675 80 380.458 80 359.777V328.755L83.01 327.182C85.0167 326.133 90.496 324.859 99.448 323.36C108.4 321.862 120.748 319.914 136.491 317.516C152.234 315.118 176.158 311.222 208.262 305.827C240.366 300.432 263.364 296.535 277.255 294.137C291.146 291.74 309.513 287.993 332.356 282.898C355.199 277.803 374.956 273.007 391.625 268.511C408.294 264.015 422.648 259.819 434.687 255.922C446.726 252.026 456.142 249.029 462.933 246.93C469.724 244.832 476.207 242.734 482.381 240.636C488.554 238.538 500.902 234.042 519.424 227.149C537.945 220.255 555.309 213.286 571.515 206.243C587.721 199.2 596.364 195.603 597.445 195.453C598.526 195.303 606.32 191.931 620.828 185.337C635.337 178.743 648.456 172.749 660.186 167.354C671.917 161.959 683.493 156.563 694.914 151.169C706.336 145.774 720.536 138.73 737.514 130.038L762.981 117H769V117Z" stroke="#E4E4E7" stroke-width="96" mask="url(#path-1-inside-1_151_3)"/>
<path fill-rule="evenodd" clip-rule="evenodd" d="M770.657 225.389H775.829L798.11 236.76C812.964 244.34 822.779 249.306 827.553 251.659C832.328 254.011 848.575 261.657 876.294 274.596C904.013 287.535 918.337 294.069 919.265 294.2C920.193 294.331 927.554 297.402 941.347 303.414C955.141 309.426 965.751 313.87 973.178 316.745C980.605 319.62 991.348 323.541 1005.41 328.508C1019.46 333.474 1028.35 336.611 1032.06 337.918C1035.78 339.225 1040.42 340.793 1045.99 342.623C1051.56 344.453 1058.72 346.674 1067.48 349.288C1076.23 351.902 1087.37 355.039 1100.9 358.698C1114.43 362.358 1127.56 365.625 1140.29 368.5C1153.02 371.376 1161.24 373.205 1164.96 373.99C1168.67 374.774 1180.47 376.996 1200.37 380.655C1220.26 384.315 1232.73 386.536 1237.77 387.32C1242.81 388.105 1255.14 390.065 1274.77 393.202C1294.4 396.339 1304.35 397.907 1304.61 397.907C1304.88 397.907 1314.43 399.737 1333.26 403.396C1352.09 407.056 1361.58 408.951 1361.71 409.081L1361.91 409.277L1360.71 467.699C1359.92 506.646 1357.93 556.963 1354.75 618.651C1351.56 680.34 1349.04 723.469 1347.19 748.04C1345.33 772.61 1343.21 793.652 1340.82 811.166C1338.43 828.679 1335.65 845.277 1332.47 860.96C1329.28 876.644 1325.83 892.458 1322.12 908.402C1318.41 924.347 1315.09 938.331 1312.17 950.355C1309.26 962.379 1305.81 975.318 1301.83 989.171C1297.85 1003.02 1295.46 1011.39 1294.67 1014.26C1293.87 1017.14 1292.68 1020.8 1291.09 1025.24C1289.49 1029.69 1287.64 1035.18 1285.52 1041.71C1283.39 1048.25 1280.08 1057.66 1275.57 1069.94C1271.06 1082.23 1267.35 1092.03 1264.43 1099.35C1261.51 1106.67 1257.93 1115.42 1253.68 1125.62C1249.44 1135.81 1244 1148.1 1237.37 1162.47C1230.74 1176.85 1226.76 1185.21 1225.44 1187.57C1224.11 1189.92 1219.27 1198.48 1210.91 1213.25C1202.56 1228.02 1197.52 1236.77 1195.79 1239.52C1194.07 1242.26 1189.96 1249.19 1183.46 1260.3C1176.96 1271.41 1172.72 1278.47 1170.73 1281.47C1168.74 1284.48 1165.69 1289.18 1161.58 1295.59C1157.46 1301.99 1154.15 1306.96 1151.63 1310.49C1149.11 1314.01 1146.19 1318.2 1142.88 1323.03C1139.56 1327.87 1136.38 1332.31 1133.33 1336.36C1130.28 1340.41 1127.89 1343.81 1126.16 1346.56C1124.44 1349.3 1121.92 1352.83 1118.6 1357.14C1115.29 1361.46 1112.11 1365.77 1109.06 1370.08C1106 1374.4 1102.69 1378.84 1099.11 1383.41C1095.53 1387.99 1092.48 1391.91 1089.96 1395.18C1087.44 1398.44 1082.07 1404.65 1073.84 1413.8C1065.62 1422.95 1055.94 1433.4 1044.8 1445.17C1033.66 1456.93 1023.84 1466.99 1015.35 1475.36C1006.87 1483.72 1001.23 1489.01 998.443 1491.24C995.658 1493.46 989.159 1499.08 978.947 1508.1C968.735 1517.11 962.501 1522.6 960.247 1524.56C957.992 1526.52 952.422 1531.36 943.536 1539.07C934.65 1546.78 928.814 1551.75 926.029 1553.97C923.244 1556.19 920.061 1558.81 916.48 1561.81C912.899 1564.82 907.925 1568.94 901.559 1574.16C895.193 1579.39 890.352 1583.25 887.037 1585.73C883.721 1588.21 880.538 1590.43 877.487 1592.4C874.437 1594.36 868.867 1597.75 860.776 1602.59C852.686 1607.43 847.381 1610.69 844.861 1612.39C842.341 1614.09 839.49 1615.85 836.307 1617.68C833.124 1619.51 829.808 1621.61 826.36 1623.96C822.912 1626.31 820.392 1628.01 818.8 1629.05C817.209 1630.1 813.76 1631.93 808.455 1634.54C803.15 1637.16 796.784 1640.16 789.357 1643.56C781.93 1646.96 776.757 1649.18 773.84 1650.23L769.463 1651.8L764.688 1650.62C761.505 1649.84 758.057 1648.53 754.344 1646.7C750.63 1644.87 744.396 1641.73 735.643 1637.29C726.89 1632.85 721.85 1630.1 720.524 1629.05C719.197 1628.01 715.815 1625.72 710.378 1622.19C704.94 1618.66 700.829 1616.05 698.043 1614.35C695.258 1612.65 689.821 1609.39 681.73 1604.55C673.64 1599.71 668.07 1596.32 665.019 1594.36C661.969 1592.39 658.786 1590.17 655.47 1587.69C652.155 1585.21 648.375 1582.27 644.131 1578.87C639.887 1575.47 634.25 1570.83 627.221 1564.95C620.191 1559.07 614.091 1553.97 608.918 1549.66C603.746 1545.34 596.186 1538.81 586.239 1530.05C576.292 1521.3 569.926 1515.81 567.141 1513.59C564.356 1511.36 558.255 1506.14 548.839 1497.9C539.422 1489.67 534.184 1485.03 533.123 1483.98C532.062 1482.94 527.353 1478.3 518.998 1470.06C510.642 1461.83 504.807 1455.95 501.491 1452.42C498.175 1448.89 490.881 1441.05 479.608 1428.9C468.334 1416.74 461.57 1409.29 459.316 1406.55C457.061 1403.8 453.745 1399.75 449.369 1394.39C444.992 1389.03 441.544 1384.72 439.024 1381.45C436.504 1378.19 433.984 1374.79 431.464 1371.26C428.944 1367.73 426.292 1364.07 423.506 1360.28C420.721 1356.49 418.201 1353.09 415.947 1350.09C413.692 1347.08 411.769 1344.4 410.177 1342.05C408.586 1339.7 406.398 1336.62 403.612 1332.83C400.827 1329.04 398.44 1325.65 396.451 1322.64C394.461 1319.63 391.809 1315.71 388.493 1310.88C385.177 1306.04 382.658 1302.25 380.933 1299.51C379.209 1296.76 376.424 1292.45 372.578 1286.57C368.732 1280.69 366.212 1276.64 365.018 1274.41C363.825 1272.19 360.509 1266.57 355.071 1257.55C349.634 1248.54 346.053 1242.65 344.328 1239.91C342.604 1237.17 338.294 1229.65 331.397 1217.37C324.501 1205.08 319.328 1195.8 315.88 1189.53C312.432 1183.25 309.381 1177.37 306.729 1171.88C304.076 1166.39 300.363 1158.16 295.588 1147.18C290.814 1136.2 288.426 1130.58 288.426 1130.32C288.426 1130.06 286.039 1124.05 281.264 1112.29C276.49 1100.52 272.776 1091.24 270.124 1084.45C267.471 1077.65 263.758 1067.33 258.983 1053.47C254.209 1039.62 249.434 1024.85 244.659 1009.17C239.885 993.484 234.58 974.403 228.744 951.923C222.909 929.444 218.797 912.715 216.41 901.737C214.023 890.759 210.707 874.814 206.463 853.903C202.219 832.992 199.699 819.269 198.903 812.734C198.107 806.199 196.383 786.203 193.731 752.745C191.078 719.287 189.354 694.063 188.558 677.072C187.763 660.082 186.834 642.046 185.773 622.964C184.712 603.883 183.253 572.647 181.396 529.256C179.54 485.865 178.611 455.152 178.611 437.116V410.062L181.198 408.689C182.922 407.775 187.63 406.664 195.322 405.357C203.015 404.05 213.625 402.351 227.153 400.26C240.681 398.168 261.238 394.77 288.824 390.065C316.411 385.36 336.172 381.962 348.108 379.871C360.045 377.78 375.827 374.512 395.456 370.069C415.085 365.625 432.061 361.443 446.385 357.522C460.708 353.601 473.043 349.942 483.387 346.544C493.732 343.146 501.823 340.532 507.658 338.702C513.494 336.872 519.064 335.042 524.369 333.213C529.674 331.383 540.284 327.462 556.2 321.45C572.115 315.438 587.035 309.361 600.961 303.218C614.886 297.075 622.314 293.939 623.242 293.808C624.17 293.677 630.868 290.737 643.335 284.986C655.802 279.236 667.075 274.008 677.155 269.303C687.234 264.598 697.181 259.893 706.996 255.188C716.81 250.483 729.012 244.34 743.601 236.76L765.484 225.389H770.657V225.389V225.389Z" fill="#E4E4E7" stroke="#E4E4E7" stroke-width="2"/>
</svg>
