<?xml version="1.0" standalone="no"?>
<!DOCTYPE svg PUBLIC "-//W3C//DTD SVG 20010904//EN"
 "http://www.w3.org/TR/2001/REC-SVG-20010904/DTD/svg10.dtd">
<svg version="1.0" xmlns="http://www.w3.org/2000/svg"
 width="512.000000pt" height="512.000000pt" viewBox="0 0 512.000000 512.000000"
 preserveAspectRatio="xMidYMid meet">
<metadata>
Created by potrace 1.14, written by Peter Selinger 2001-2017
</metadata>
<g transform="translate(0.000000,512.000000) scale(0.100000,-0.100000)"
fill="#000000" stroke="none">
<path d="M2528 5115 c-1 -1 -30 -5 -63 -8 -479 -44 -961 -241 -1345 -550 -112
-90 -256 -228 -330 -316 -25 -29 -50 -59 -55 -65 -105 -113 -295 -431 -378
-631 -74 -177 -136 -399 -163 -575 -3 -19 -7 -46 -10 -60 -19 -117 -26 -477
-11 -610 23 -213 73 -427 140 -610 208 -566 584 -1021 1102 -1332 64 -39 234
-125 300 -153 232 -97 529 -172 760 -193 100 -9 419 -9 500 0 285 32 516 92
773 204 336 146 675 396 902 663 25 29 55 65 68 80 42 49 130 176 155 223 100
189 40 435 -143 587 -183 153 -418 179 -670 75 -36 -15 -76 -26 -88 -26 -16 1
-26 -5 -29 -17 -2 -10 -14 -23 -26 -28 -35 -16 -158 -112 -230 -178 -104 -97
-132 -119 -230 -184 -43 -29 -155 -91 -163 -91 -2 0 -4 11 -4 25 0 15 -9 31
-25 41 -53 35 -112 -16 -86 -73 7 -16 12 -30 10 -33 -6 -10 -172 -57 -228 -65
-14 -2 -43 -6 -64 -10 -107 -20 -370 -6 -490 26 -23 6 -52 13 -63 15 -38 7
-157 55 -238 95 -243 123 -420 290 -573 544 -65 107 -137 305 -157 430 -2 17
-8 50 -12 75 -10 67 -12 237 -3 311 15 109 17 124 34 190 61 236 183 453 348
621 222 226 468 350 804 404 118 19 353 7 480 -25 126 -32 201 -59 290 -104
133 -68 168 -90 288 -186 155 -124 279 -196 413 -241 88 -29 131 -35 247 -35
119 1 208 25 303 82 232 141 327 404 229 634 -55 127 -370 451 -573 590 -27
18 -51 36 -54 39 -13 16 -205 128 -309 180 -232 116 -473 194 -721 234 -52 8
-111 18 -130 21 -37 7 -476 16 -482 10z m412 -407 c420 -43 850 -224 1165
-489 113 -95 313 -310 328 -352 11 -29 -20 -82 -64 -113 -99 -69 -265 -27
-454 113 -44 33 -88 67 -97 77 -38 38 -219 151 -323 201 -494 240 -1060 240
-1550 1 -97 -48 -280 -161 -319 -198 -8 -7 -47 -42 -88 -78 -40 -36 -101 -96
-133 -134 -33 -37 -65 -74 -71 -80 -37 -39 -154 -227 -200 -322 -258 -531
-237 -1142 57 -1656 105 -183 266 -371 429 -498 36 -28 72 -57 80 -64 65 -52
297 -173 410 -214 56 -20 193 -60 233 -68 105 -20 141 -26 202 -31 91 -9 305
-8 375 1 396 53 743 216 1022 481 197 187 380 261 497 200 39 -20 81 -72 81
-99 0 -12 -27 -59 -60 -104 -357 -487 -914 -807 -1520 -872 -86 -9 -426 -6
-490 5 -354 58 -601 146 -864 308 -282 172 -549 443 -718 727 -72 120 -178
345 -178 375 0 8 -4 23 -9 33 -28 50 -86 293 -106 437 -11 80 -13 413 -4 495
10 80 42 253 64 335 73 282 235 590 435 829 32 39 216 224 255 257 154 129
384 270 555 339 79 32 158 61 175 65 6 2 51 14 100 29 86 24 199 46 330 64 81
11 350 11 455 0z"/>
<path d="M2907 3842 c-10 -10 -17 -26 -17 -35 0 -21 27 -47 50 -47 10 0 26 7
34 16 30 30 9 84 -33 84 -10 0 -25 -8 -34 -18z"/>
<path d="M2504 3795 c-7 -18 3 -35 21 -35 15 0 28 27 19 41 -8 14 -34 11 -40
-6z"/>
<path d="M3197 3792 c-33 -36 -8 -92 40 -92 25 0 53 30 53 57 0 46 -62 69 -93
35z"/>
<path d="M2747 3642 c-22 -24 -21 -55 1 -75 23 -21 41 -21 70 -1 27 18 29 55
4 77 -24 22 -55 21 -75 -1z"/>
<path d="M3077 3642 c-33 -36 -8 -92 40 -92 25 0 53 30 53 57 0 46 -62 69 -93
35z"/>
<path d="M3417 3642 c-33 -36 -8 -92 40 -92 25 0 53 30 53 57 0 46 -62 69 -93
35z"/>
<path d="M2025 3590 c-8 -26 7 -45 30 -36 21 8 16 50 -7 54 -10 2 -19 -5 -23
-18z"/>
<path d="M2374 3575 c-4 -9 -2 -21 4 -27 15 -15 44 -1 40 19 -4 23 -36 29 -44
8z"/>
<path d="M3228 3464 c-76 -41 -74 -159 2 -199 96 -50 194 36 160 140 -21 65
-100 93 -162 59z"/>
<path d="M2904 3451 c-30 -13 -64 -60 -64 -88 0 -41 29 -90 61 -103 67 -28
149 24 149 96 0 67 -84 121 -146 95z"/>
<path d="M2575 3380 c-19 -21 -14 -68 8 -82 35 -23 87 7 87 50 0 22 -34 52
-61 52 -9 0 -24 -9 -34 -20z"/>
<path d="M3587 3383 c-22 -25 -22 -56 1 -76 47 -43 118 17 84 70 -15 23 -66
26 -85 6z"/>
<path d="M2254 3345 c-4 -9 -2 -21 4 -27 15 -15 44 -1 40 19 -4 23 -36 29 -44
8z"/>
<path d="M3944 3345 c-4 -9 -2 -21 4 -27 15 -15 44 -1 40 19 -4 23 -36 29 -44
8z"/>
<path d="M1861 3341 c-15 -10 -6 -51 12 -51 25 0 39 18 32 39 -7 22 -21 26
-44 12z"/>
<path d="M3074 3200 c-12 -5 -32 -23 -44 -40 -32 -45 -23 -105 22 -143 65 -56
164 -16 174 69 11 85 -71 147 -152 114z"/>
<path d="M2714 3166 c-33 -33 -36 -40 -31 -79 11 -80 90 -120 157 -80 86 50
54 176 -47 190 -39 5 -46 2 -79 -31z"/>
<path d="M2412 3144 c-40 -28 -16 -94 35 -94 46 0 69 62 35 93 -23 21 -41 21
-70 1z"/>
<path d="M3417 3142 c-33 -36 -8 -92 40 -92 25 0 53 30 53 57 0 46 -62 69 -93
35z"/>
<path d="M1654 3125 c-4 -9 -2 -21 4 -27 15 -15 44 -1 40 19 -4 23 -36 29 -44
8z"/>
<path d="M3764 3125 c-4 -9 -2 -21 4 -27 15 -15 44 -1 40 19 -4 23 -36 29 -44
8z"/>
<path d="M4104 3125 c-4 -9 -2 -21 4 -27 15 -15 44 -1 40 19 -4 23 -36 29 -44
8z"/>
<path d="M2024 3045 c-4 -9 -2 -21 4 -27 15 -15 44 -1 40 19 -4 23 -36 29 -44
8z"/>
<path d="M2564 2920 c-12 -5 -31 -22 -43 -38 -37 -52 -23 -119 31 -152 43 -26
77 -25 119 3 107 72 13 236 -107 187z"/>
<path d="M2904 2911 c-32 -14 -64 -65 -64 -101 0 -44 56 -100 100 -100 93 0
143 103 83 170 -30 33 -82 46 -119 31z"/>
<path d="M2242 2884 c-40 -28 -16 -94 35 -94 46 0 69 62 35 93 -23 21 -41 21
-70 1z"/>
<path d="M3246 2874 c-30 -30 -9 -84 33 -84 22 0 51 30 51 53 0 21 -27 47 -50
47 -10 0 -26 -7 -34 -16z"/>
<path d="M3601 2851 c-17 -11 -8 -39 14 -48 23 -8 38 11 30 36 -7 22 -21 26
-44 12z"/>
<path d="M3931 2851 c-15 -10 -6 -51 12 -51 25 0 39 18 32 39 -7 22 -21 26
-44 12z"/>
<path d="M1564 2835 c-4 -9 -2 -21 4 -27 15 -15 44 -1 40 19 -4 23 -36 29 -44
8z"/>
<path d="M4311 2841 c-15 -10 -6 -51 12 -51 25 0 39 18 32 39 -7 22 -21 26
-44 12z"/>
<path d="M1854 2825 c-4 -9 -2 -21 4 -27 15 -15 44 -1 40 19 -4 23 -36 29 -44
8z"/>
<path d="M2384 2652 c-85 -54 -60 -183 37 -198 74 -12 134 46 125 120 -9 78
-96 119 -162 78z"/>
<path d="M2725 2661 c-40 -18 -60 -51 -60 -102 0 -40 5 -54 28 -76 23 -23 36
-28 78 -28 46 0 54 3 81 35 25 30 29 41 25 79 -6 56 -40 91 -93 97 -21 2 -48
0 -59 -5z"/>
<path d="M2070 2610 c-11 -11 -20 -29 -20 -40 0 -11 9 -29 20 -40 11 -11 29
-20 40 -20 28 0 60 35 60 64 0 27 -33 56 -62 56 -10 0 -27 -9 -38 -20z"/>
<path d="M3066 2608 c-9 -12 -16 -29 -16 -38 0 -30 30 -60 60 -60 54 0 81 74
38 104 -32 22 -64 20 -82 -6z"/>
<path d="M3441 2581 c-15 -10 -6 -51 12 -51 25 0 39 18 32 39 -7 22 -21 26
-44 12z"/>
<path d="M3764 2575 c-8 -20 2 -45 18 -45 26 0 40 17 33 39 -7 24 -43 29 -51
6z"/>
<path d="M4111 2581 c-15 -10 -6 -51 12 -51 25 0 39 18 32 39 -7 22 -21 26
-44 12z"/>
<path d="M1514 2545 c-4 -9 -2 -21 4 -27 15 -15 44 -1 40 19 -4 23 -36 29 -44
8z"/>
<path d="M1764 2545 c-4 -9 -2 -21 4 -27 15 -15 44 -1 40 19 -4 23 -36 29 -44
8z"/>
<path d="M4511 2551 c-14 -9 -7 -51 9 -51 22 0 40 14 40 30 0 10 -7 21 -16 24
-19 7 -16 8 -33 -3z"/>
<path d="M2549 2387 c-64 -43 -63 -131 1 -175 98 -66 213 46 151 146 -35 55
-96 67 -152 29z"/>
<path d="M2904 2390 c-70 -28 -83 -121 -24 -172 69 -63 170 -10 170 89 0 15
-14 39 -34 59 -35 35 -68 42 -112 24z"/>
<path d="M2237 2342 c-22 -24 -21 -55 1 -75 24 -22 55 -21 75 1 23 26 21 58
-5 76 -29 21 -51 20 -71 -2z"/>
<path d="M3247 2342 c-22 -24 -21 -55 1 -75 23 -21 41 -21 70 -1 27 18 29 55
4 77 -24 22 -55 21 -75 -1z"/>
<path d="M3599 2314 c-16 -20 -1 -48 29 -52 25 -4 39 32 22 53 -16 19 -34 19
-51 -1z"/>
<path d="M3932 2318 c-26 -26 -8 -58 33 -58 17 0 27 27 20 51 -7 21 -35 25
-53 7z"/>
<path d="M1514 2285 c-4 -9 -2 -21 4 -27 15 -15 44 -1 40 19 -4 23 -36 29 -44
8z"/>
<path d="M1854 2285 c-4 -9 -2 -21 4 -27 15 -15 44 -1 40 19 -4 23 -36 29 -44
8z"/>
<path d="M4341 2271 c-15 -10 -6 -51 12 -51 25 0 39 18 32 39 -7 22 -21 26
-44 12z"/>
<path d="M3062 2150 c-59 -36 -69 -106 -23 -160 26 -32 34 -35 80 -35 41 0 55
5 77 26 68 69 18 189 -79 189 -12 0 -37 -9 -55 -20z"/>
<path d="M2714 2126 c-93 -93 34 -235 135 -150 58 48 50 138 -14 168 -52 25
-83 20 -121 -18z"/>
<path d="M2407 2072 c-22 -24 -21 -55 1 -75 23 -21 41 -21 70 -1 27 18 29 55
4 77 -24 22 -55 21 -75 -1z"/>
<path d="M3417 2072 c-22 -24 -21 -55 1 -75 23 -21 41 -21 70 -1 27 18 29 55
4 77 -24 22 -55 21 -75 -1z"/>
<path d="M3771 2051 c-15 -10 -6 -51 12 -51 25 0 39 18 32 39 -7 22 -21 26
-44 12z"/>
<path d="M2024 2015 c-4 -9 -2 -21 4 -27 15 -15 44 -1 40 19 -4 23 -36 29 -44
8z"/>
<path d="M1625 2000 c-10 -17 6 -51 22 -48 26 5 41 37 23 48 -20 13 -37 13
-45 0z"/>
<path d="M4071 2001 c-15 -10 -6 -51 12 -51 25 0 39 18 32 39 -7 22 -21 26
-44 12z"/>
<path d="M3223 1890 c-36 -22 -60 -82 -49 -125 23 -92 158 -112 207 -31 64
104 -54 220 -158 156z"/>
<path d="M2893 1874 c-82 -41 -60 -172 33 -190 41 -8 97 18 113 52 21 46 14
83 -23 120 -38 38 -72 43 -123 18z"/>
<path d="M3592 1824 c-27 -18 -29 -55 -4 -77 24 -22 55 -21 75 1 21 23 21 41
1 70 -18 26 -41 28 -72 6z"/>
<path d="M2576 1814 c-31 -30 -9 -84 34 -84 24 0 50 26 50 50 0 24 -26 50 -50
50 -10 0 -26 -7 -34 -16z"/>
<path d="M2254 1805 c-4 -9 -2 -21 4 -27 15 -15 44 -1 40 19 -4 23 -36 29 -44
8z"/>
<path d="M1794 1775 c-4 -9 -2 -21 4 -27 15 -15 44 -1 40 19 -4 23 -36 29 -44
8z"/>
<path d="M2424 1665 c-4 -9 -2 -21 4 -27 15 -15 44 -1 40 19 -4 23 -36 29 -44
8z"/>
<path d="M1974 1585 c-7 -18 3 -35 21 -35 18 0 26 15 19 34 -8 20 -33 21 -40
1z"/>
<path d="M2747 1562 c-22 -24 -21 -55 1 -75 23 -21 41 -21 70 -1 27 18 29 55
4 77 -24 22 -55 21 -75 -1z"/>
<path d="M3077 1562 c-33 -36 -8 -92 40 -92 25 0 53 30 53 57 0 46 -62 69 -93
35z"/>
<path d="M3417 1562 c-33 -36 -8 -92 40 -92 25 0 53 30 53 57 0 46 -62 69 -93
35z"/>
<path d="M2224 1455 c-4 -9 -2 -21 4 -27 15 -15 44 -1 40 19 -4 23 -36 29 -44
8z"/>
<path d="M2424 1405 c-4 -9 -2 -21 4 -27 15 -15 44 -1 40 19 -4 23 -36 29 -44
8z"/>
<path d="M2614 1345 c-4 -9 -2 -21 4 -27 15 -15 44 -1 40 19 -4 23 -36 29 -44
8z"/>
<path d="M2945 1310 c-35 -39 3 -91 55 -75 28 9 37 51 15 75 -10 11 -26 20
-35 20 -9 0 -25 -9 -35 -20z"/>
</g>
</svg>
